<?xml version="1.0" encoding="UTF-8"?>
<svg id="Layer_2" data-name="Layer 2" xmlns="http://www.w3.org/2000/svg" width="166.51135" height="190.53422" viewBox="0 0 166.51135 190.53422">
  <g id="Livello_1" data-name="Livello 1">
    <path d="M156.44878,99.18446c-3.86431.80533-6.48172,4.43934-6.49881,8.38663-.05895,13.62077-4.23252,26.28098-11.32591,36.8225-1.36412,2.02723-4.2594,2.28342-5.98724.55569l-10.59247-10.59179c-.65255-.65251-.7405-1.66182-.24215-2.4385,4.56728-7.11825,7.22384-15.5736,7.22384-24.64103,0-2.53688-.21023-5.02521-.61099-7.4502-.36566-2.2126.52262-4.44102,2.37464-5.70566,3.3424-2.28233,7.85607-5.74284,13.02403-10.69554,12.26832-11.75864,13.48165-21.84943,15.16091-35.81603.16755-1.39158.34165-2.8486.536-4.3803.50728-3.9981-1.70157-8.02656-5.53656-9.26548-5.16183-1.66757-10.20059,1.75559-10.84498,6.80892-.2168,1.70779-.41268,3.32239-.59716,4.86092-1.58988,13.22681-2.18513,18.17711-10.17637,25.83554-4.05518,3.88572-7.59473,6.64454-10.20582,8.47797-.82304.57791-1.93082.36797-2.54206-.43063-6.4619-8.4427-15.78892-14.57414-26.51939-16.93311-.90015-.19789-1.55228-.97307-1.55228-1.89471l.00002-52.09895c0-3.98006-2.66623-7.63808-6.56891-8.41911-5.32334-1.06534-9.99177,2.97543-9.99177,8.10846l-.00028,52.41c0,.92139-.65189,1.69605-1.55182,1.89376-11.09397,2.43735-20.69341,8.90295-27.17276,17.78897-.60869.83478-1.74069,1.06298-2.60074.49054-2.67107-1.77784-6.74878-4.802-11.53839-9.39127-7.99314-7.66033-8.58839-12.61063-10.17827-25.83744-.18447-1.53853-.38035-3.15313-.59716-4.86092-.57814-4.53382-4.70688-7.75542-9.26162-7.16587-4.53572.57814-7.74401,4.724-7.16587,9.26162.213,1.66405.40127,3.24062.58194,4.74111,1.67926,13.9666,2.89259,24.05739,15.16281,35.81793,6.08808,5.83444,11.27024,9.60029,14.69571,11.80576,1.92761,1.24108,2.89112,3.4837,2.57317,5.75414-.28794,2.05613-.43964,4.1551-.43964,6.28961,0,9.01124,2.62207,17.41934,7.13736,24.51008.49432.77628.4049,1.78228-.24586,2.43304l-10.5921,10.59201c-1.73033,1.73031-4.6312,1.47081-5.99202-.56295-7.03402-10.51246-11.16943-23.11928-11.22845-36.67732-.01719-3.94794-2.63388-7.58291-6.49882-8.38836-5.35267-1.11549-10.06257,2.93833-10.06257,8.0941,0,45.90682,37.34885,83.25567,83.25567,83.25567s83.25567-37.34885,83.25567-83.25567c0-5.15577-4.7099-9.20959-10.06257-8.09409ZM74.97537,153.86373v17.32055c0,1.18905-1.0626,2.12664-2.23688,1.93981-10.61367-1.68869-20.39689-5.88689-28.72616-11.97078-.95769-.69952-1.04169-2.10685-.20309-2.94545l12.23169-12.23169c.6534-.6534,1.66362-.73963,2.4397-.23807,4.50329,2.91038,9.54667,5.04934,14.9454,6.23525.89859.19739,1.54934.97038,1.54934,1.89039ZM93.08562,151.97255c5.34481-1.17407,10.34191-3.28161,14.81109-6.14782.77571-.49749,1.78267-.40975,2.43432.24185l12.23927,12.2383c.83996.83989.75408,2.24984-.2069,2.94803-8.30001,6.03035-18.03465,10.1919-28.59085,11.87126-1.17419.1868-2.23658-.75066-2.23658-1.93961v-17.32116c0-.92018.65089-1.69342,1.54964-1.89085ZM79.45667,78.30663c19.1082-2.40821,35.17735,13.66132,32.76883,32.76939-1.64106,13.01937-12.15473,23.53269-25.17415,25.17331-19.10777,2.40783-35.17649-13.66101-32.76844-32.76882,1.64077-13.01947,12.1543-23.53304,25.17376-25.17388Z" style="fill: #e0e0df; stroke-width: 0px;"/>
  </g>
</svg>