<?xml version="1.0" encoding="utf-8"?>
<!-- Generator: Adobe Illustrator 28.1.0, SVG Export Plug-In . SVG Version: 6.00 Build 0)  -->
<svg version="1.1" id="Layer_1" xmlns="http://www.w3.org/2000/svg" xmlns:xlink="http://www.w3.org/1999/xlink" x="0px" y="0px"
	 width="759.75px" height="283.465px" viewBox="0 0 759.75 283.465" style="enable-background:new 0 0 759.75 283.465;"
	 xml:space="preserve">
<g>
	<path style="fill:#E0E0DF;" d="M404.06,112.606h-36.369c-10.193,0-18.486-8.293-18.486-18.487c0-10.193,8.293-18.486,18.486-18.486
		h18.185c16.032,0,29.028-12.996,29.028-29.028c0-16.032-12.996-29.028-29.028-29.028h-18.185
		c-42.206,0-76.543,34.337-76.543,76.543s34.337,76.543,76.543,76.543h36.369c10.193,0,18.486,8.293,18.486,18.486
		c0,10.194-8.293,18.487-18.486,18.487H295.374c-9.672,0-17.541-7.869-17.541-17.541v-23.301l0,0c0-0.479-0.013-0.958-0.036-1.436
		c-0.011-0.226-0.032-0.448-0.048-0.672c-0.018-0.247-0.032-0.494-0.056-0.741c-0.028-0.284-0.066-0.565-0.102-0.846
		c-0.023-0.184-0.043-0.369-0.07-0.552c-0.045-0.306-0.1-0.609-0.154-0.913c-0.028-0.159-0.054-0.318-0.085-0.477
		c-0.061-0.308-0.13-0.612-0.2-0.916c-0.036-0.156-0.07-0.313-0.108-0.469c-0.073-0.293-0.154-0.583-0.235-0.873
		c-0.048-0.168-0.093-0.337-0.144-0.505c-0.081-0.269-0.169-0.535-0.258-0.802c-0.063-0.188-0.125-0.377-0.191-0.564
		c-0.085-0.239-0.177-0.475-0.268-0.71c-0.082-0.213-0.164-0.425-0.251-0.636c-0.085-0.205-0.175-0.408-0.265-0.611
		c-0.105-0.238-0.209-0.475-0.321-0.71c-0.082-0.173-0.168-0.343-0.254-0.513c-0.128-0.258-0.258-0.516-0.395-0.771
		c-0.078-0.146-0.161-0.29-0.242-0.434c-0.151-0.271-0.303-0.54-0.464-0.807c-0.078-0.13-0.161-0.257-0.241-0.385
		c-0.17-0.272-0.34-0.544-0.52-0.811c-0.084-0.126-0.173-0.248-0.26-0.373c-0.181-0.261-0.363-0.522-0.554-0.779
		c-0.103-0.138-0.21-0.271-0.315-0.407c-0.182-0.236-0.363-0.472-0.553-0.704c-0.143-0.173-0.292-0.341-0.439-0.511
		c-0.162-0.188-0.319-0.377-0.486-0.562c-0.275-0.303-0.559-0.599-0.846-0.89c-0.048-0.048-0.092-0.099-0.14-0.147
		c-0.05-0.05-0.103-0.096-0.153-0.146c-0.29-0.285-0.582-0.567-0.883-0.84c-0.188-0.171-0.381-0.331-0.573-0.496
		c-0.167-0.143-0.33-0.289-0.5-0.429c-0.235-0.193-0.475-0.377-0.714-0.562c-0.132-0.102-0.262-0.207-0.396-0.306
		c-0.259-0.192-0.522-0.375-0.785-0.558c-0.123-0.085-0.244-0.173-0.368-0.256c-0.269-0.181-0.542-0.353-0.816-0.523
		c-0.126-0.079-0.251-0.16-0.379-0.237c-0.269-0.162-0.54-0.315-0.812-0.467c-0.143-0.08-0.285-0.162-0.429-0.24
		c-0.257-0.138-0.517-0.269-0.777-0.398c-0.168-0.084-0.335-0.169-0.505-0.25c-0.238-0.113-0.478-0.219-0.718-0.325
		c-0.2-0.088-0.4-0.178-0.603-0.262c-0.213-0.088-0.429-0.171-0.645-0.254c-0.233-0.09-0.466-0.181-0.702-0.265
		c-0.189-0.068-0.38-0.13-0.57-0.193c-0.265-0.088-0.529-0.176-0.797-0.257c-0.168-0.051-0.338-0.096-0.507-0.144
		c-0.289-0.082-0.578-0.162-0.87-0.235c-0.158-0.039-0.317-0.073-0.476-0.11c-0.301-0.069-0.602-0.138-0.906-0.198
		c-0.165-0.032-0.33-0.059-0.495-0.088c-0.298-0.053-0.595-0.107-0.896-0.151c-0.189-0.028-0.379-0.048-0.568-0.072
		c-0.277-0.035-0.553-0.073-0.832-0.1c-0.253-0.025-0.508-0.04-0.762-0.058c-0.217-0.015-0.432-0.036-0.65-0.047
		c-0.958-0.047-1.918-0.047-2.877,0c-0.218,0.011-0.434,0.031-0.65,0.047c-0.254,0.018-0.508,0.033-0.762,0.058
		c-0.279,0.027-0.555,0.065-0.832,0.1c-0.189,0.024-0.379,0.044-0.568,0.072c-0.301,0.044-0.598,0.098-0.896,0.151
		c-0.165,0.03-0.33,0.056-0.495,0.088c-0.304,0.06-0.605,0.129-0.906,0.198c-0.159,0.037-0.318,0.071-0.476,0.11
		c-0.294,0.073-0.584,0.154-0.874,0.236c-0.167,0.047-0.335,0.092-0.502,0.143c-0.27,0.082-0.536,0.17-0.802,0.259
		c-0.188,0.063-0.377,0.124-0.565,0.191c-0.238,0.085-0.473,0.176-0.708,0.267c-0.213,0.083-0.427,0.164-0.639,0.252
		c-0.205,0.085-0.407,0.175-0.609,0.265c-0.237,0.105-0.475,0.209-0.71,0.321c-0.173,0.083-0.344,0.169-0.515,0.255
		c-0.257,0.128-0.514,0.257-0.768,0.393c-0.148,0.08-0.293,0.163-0.439,0.245c-0.269,0.15-0.538,0.302-0.802,0.461
		c-0.132,0.079-0.261,0.163-0.392,0.245c-0.27,0.168-0.539,0.337-0.804,0.515c-0.13,0.087-0.257,0.179-0.385,0.269
		c-0.257,0.179-0.514,0.357-0.767,0.545c-0.144,0.107-0.284,0.22-0.426,0.33c-0.229,0.177-0.458,0.352-0.683,0.536
		c-0.189,0.156-0.373,0.319-0.558,0.479c-0.172,0.148-0.346,0.292-0.515,0.445c-0.355,0.322-0.703,0.652-1.042,0.991l-64.531,64.532
		c-2.793,2.792-6.053,3.209-7.748,3.209c-1.694,0-4.954-0.417-7.746-3.208l-14.132-14.132l37.547-37.548
		c32.358-32.359,32.357-85.01-0.001-117.369c-15.848-15.848-36.921-24.527-59.331-24.307C89.927,17.618,68.99,26.58,53.382,42.678
		C47.459,48.786,41.38,54.865,35.31,60.747c-16.1,15.609-25.062,36.547-25.236,58.956c-0.173,22.414,8.46,43.485,24.308,59.333
		l17.634,17.634l-24.721,24.722c-11.336,11.336-11.336,29.716,0.001,41.052c11.336,11.336,29.716,11.335,41.052,0l24.721-24.721
		l14.131,14.131c13.034,13.035,30.365,20.213,48.799,20.213s35.765-7.178,48.8-20.213l24.715-24.715
		c12.981,22.989,37.631,38.553,65.861,38.553H404.06c42.206,0,76.543-34.337,76.543-76.543S446.266,112.606,404.06,112.606z
		 M93.067,155.617l-17.633-17.634c-4.763-4.762-7.356-11.095-7.305-17.831c0.052-6.732,2.748-13.026,7.591-17.721
		c6.495-6.296,13.003-12.803,19.342-19.341c4.696-4.843,10.989-7.539,17.721-7.591c0.066,0,0.132,0,0.198,0
		c6.661,0,12.917,2.59,17.632,7.305c9.723,9.723,9.724,25.542,0.001,35.265L93.067,155.617z"/>
	<path style="fill:#E0E0DF;" d="M728.274,138.275c-10.85-4.494-23.332-2.009-31.635,6.292l-59.829,59.829
		c-4.24,4.241-9.879,6.576-15.876,6.576s-11.636-2.335-15.876-6.576l-9.759-9.758c13.022-13.072,26.238-26.357,37.847-38.06
		c32.005-32.266,31.816-84.742-0.42-116.978l-0.939-0.939c-31.345-31.344-82.503-31.501-114.04-0.35l-21.76,21.493
		c-15.777,15.584-24.505,36.38-24.573,58.557c-0.068,22.176,8.529,43.026,24.211,58.708l17.624,17.623
		c-14.635,14.657-24.701,24.724-24.949,24.972c-11.336,11.336-11.336,29.716,0,41.053c5.668,5.668,13.098,8.502,20.526,8.502
		s14.858-2.834,20.526-8.502c0.248-0.249,10.312-10.312,24.948-24.972l9.705,9.705c31.391,31.39,82.467,31.39,113.857,0
		l10.274-10.275v5.016c0,16.032,12.996,29.028,29.028,29.028s29.028-12.997,29.028-29.028v-75.096
		C746.194,153.354,739.122,142.769,728.274,138.275z M554.248,153.587l-17.57-17.57c-4.668-4.668-7.228-10.875-7.207-17.476
		s2.618-12.792,7.315-17.432l21.76-21.493c4.433-4.378,10.239-6.566,16.044-6.566c5.853,0,11.703,2.223,16.145,6.665l0.939,0.939
		c9.691,9.691,9.806,25.41,0.253,35.04C580.373,127.343,567.216,140.569,554.248,153.587z"/>
	<path style="fill:#E0E0DF;" d="M715.615,85.458c19.09,0,34.62-15.531,34.62-34.621c0-19.09-15.53-34.621-34.62-34.621
		s-34.621,15.531-34.621,34.621C680.994,69.927,696.525,85.458,715.615,85.458z"/>
	<circle style="fill:#E0E0DF;" cx="246.397" cy="49.837" r="34.621"/>
</g>
</svg>
