<?xml version="1.0" encoding="utf-8"?>
<!-- Generator: Adobe Illustrator 28.1.0, SVG Export Plug-In . SVG Version: 6.00 Build 0)  -->
<svg version="1.1" id="Layer_1" xmlns="http://www.w3.org/2000/svg" xmlns:xlink="http://www.w3.org/1999/xlink" x="0px" y="0px"
	 viewBox="0 0 275.6 387" style="enable-background:new 0 0 275.6 387;" xml:space="preserve">
<style type="text/css">
	.st0{fill:#A9A8A9;}
	.st1{fill:#F9F9F9;}
	.st2{fill:none;stroke:#F9F9F9;stroke-width:0.75;stroke-linecap:round;stroke-linejoin:round;stroke-miterlimit:10;}
	.st3{fill:#F5F5F5;}
	.st4{fill:#E0E0DF;}
	.st5{fill:none;stroke:#F9F9F9;stroke-width:0.75;stroke-linecap:round;stroke-linejoin:round;}
</style>
<g id="Layer_2_00000123410924629239996730000014079370310554394540_">
	<rect x="0.4" y="0" class="st0" width="275.2" height="386.6"/>
</g>
<g id="Layer_1_00000002359005377424527170000018162646424981834120_">
	<g id="bg_00000052797529510145798670000014989533388809472678_">
		<path class="st1" d="M275.2,387H0.4c-0.2,0-0.4-0.2-0.4-0.4V0.4C0,0.2,0.2,0,0.4,0h274.9c0.2,0,0.4,0.2,0.4,0.4v386.3
			C275.6,386.9,275.5,387,275.2,387z M0.8,386.3h274.1V0.8H0.8V386.3z"/>
	</g>
	<g id="LWPOLYLINE_00000012442784757060678060000013980158093105436847_">
		<path class="st2" d="M249.7,382.6h6c2.7,0,4.8-2.2,4.8-4.8c0-2.7-2.2-4.8-4.8-4.8h-6c-2.7,0-4.8,2.2-4.8,4.8
			S247,382.6,249.7,382.6z"/>
	</g>
	<g id="LWPOLYLINE_00000082370218235174695300000006145014403874644620_">
		<path class="st2" d="M255.7,4.7h-6c-2.7,0-4.8,2.2-4.8,4.8s2.2,4.8,4.8,4.8h6c2.7,0,4.8-2.2,4.8-4.8S258.4,4.7,255.7,4.7z"/>
	</g>
	<g id="LWPOLYLINE_00000110468371859227771120000016139625487889258385_">
		<path class="st2" d="M19.9,382.6h6c2.7,0,4.8-2.2,4.8-4.8c0-2.7-2.2-4.8-4.8-4.8h-6c-2.7,0-4.8,2.2-4.8,4.8
			C15.1,380.4,17.3,382.6,19.9,382.6z"/>
	</g>
	<g id="LWPOLYLINE_00000033341295573358350170000005610102775512438190_">
		<path class="st2" d="M25.9,4.7h-6c-2.7,0-4.8,2.2-4.8,4.8s2.2,4.8,4.8,4.8h6c2.7,0,4.8-2.2,4.8-4.8S28.6,4.7,25.9,4.7z"/>
	</g>
	<path class="st2" d="M63.5,200.4H67c5.8,0,10.5-4.4,10.9-10.1"/>
	<line class="st2" x1="51" y1="338.6" x2="38.7" y2="338.6"/>
	<g>
		<path class="st1" d="M156.5,13.3h-0.8l0.1-0.6c-0.4,0.4-0.9,0.7-1.7,0.7c-0.9,0-1.6-0.6-1.6-1.6c0-0.2,0-0.4,0.1-0.6l0.7-3.6h0.8
			l-0.7,3.5c0,0.2-0.1,0.4-0.1,0.5c0,0.7,0.5,1,1,1c0.4,0,1.4-0.2,1.7-1.6l0.7-3.5h0.8L156.5,13.3z"/>
		<path class="st1" d="M163.5,9.7l-0.7,3.6H162l0.7-3.5c0-0.2,0.1-0.4,0.1-0.5c0-0.7-0.4-1-1-1c-0.4,0-1.4,0.2-1.7,1.6l-0.7,3.5
			h-0.8l1.1-5.7h0.8l-0.1,0.6c0.4-0.4,0.9-0.7,1.7-0.7c0.9,0,1.6,0.6,1.6,1.6C163.5,9.3,163.5,9.5,163.5,9.7z"/>
		<path class="st1" d="M167.7,9.8l1.5,3.5h-0.9l-1.2-3l-1.3,1.3l-0.3,1.7h-0.8l1.7-8.3h0.8l-1.1,5.5l3-2.9h1L167.7,9.8z"/>
		<path class="st1" d="M175.6,9.7l-0.7,3.6H174l0.7-3.5c0-0.2,0.1-0.4,0.1-0.5c0-0.7-0.4-1-1-1c-0.4,0-1.4,0.2-1.7,1.6l-0.7,3.5
			h-0.8l1.1-5.7h0.8l-0.1,0.6c0.4-0.4,0.9-0.7,1.7-0.7c0.9,0,1.6,0.6,1.6,1.6C175.6,9.3,175.6,9.5,175.6,9.7z"/>
		<path class="st1" d="M181.5,10.4c-0.2,1.3-0.6,1.9-1.1,2.3c-0.5,0.4-1.1,0.6-1.6,0.6c-0.7,0-1.9-0.3-1.9-1.9c0-0.3,0.1-0.8,0.1-1
			c0.2-1.3,0.6-1.9,1.1-2.3s1.1-0.6,1.6-0.6c0.7,0,1.9,0.3,1.9,1.9C181.6,9.7,181.5,10.2,181.5,10.4z M179.7,8.2
			c-0.4,0-0.8,0.2-1.1,0.4c-0.4,0.3-0.6,0.8-0.8,1.8c-0.1,0.4-0.1,0.8-0.1,1c0,0.9,0.5,1.2,1.1,1.2c0.4,0,0.8-0.2,1.1-0.5
			s0.6-0.8,0.8-1.8c0.1-0.4,0.1-0.8,0.1-1C180.8,8.5,180.2,8.2,179.7,8.2z"/>
		<path class="st1" d="M187.8,13.3h-0.7l-0.6-4.5l-2.3,4.5h-0.7l-0.6-5.7h0.8l0.4,4.6l2.3-4.6h0.7l0.5,4.6l2.1-4.6h0.9L187.8,13.3z"
			/>
		<path class="st1" d="M195.7,9.7l-0.7,3.6h-0.8l0.7-3.5c0-0.2,0.1-0.4,0.1-0.5c0-0.7-0.4-1-1-1c-0.4,0-1.4,0.2-1.7,1.6l-0.7,3.5
			h-0.8l1.1-5.7h0.8l-0.1,0.6c0.4-0.4,0.9-0.7,1.7-0.7c0.9,0,1.6,0.6,1.6,1.6C195.8,9.3,195.7,9.5,195.7,9.7z"/>
		<path class="st1" d="M203.7,13.3h-0.8l0.1-0.7c-0.5,0.6-1.1,0.8-1.6,0.8c-1.2,0-1.6-0.8-1.6-1.8c0-0.4,0-0.7,0.1-1.1
			c0.2-1,0.5-1.8,1-2.3s1-0.6,1.5-0.6s1.1,0.2,1.4,0.8l0.7-3.3h0.8L203.7,13.3z M202.6,8.2c-1.2,0-1.6,1-1.8,2.2
			c-0.1,0.3-0.1,0.7-0.1,1c0,0.6,0.2,1.2,1,1.2c1.2,0,1.6-1,1.8-2.2c0.1-0.3,0.1-0.7,0.1-1C203.6,8.8,203.4,8.2,202.6,8.2z"/>
		<path class="st1" d="M210.4,10.6h-3.7c0,0.2-0.1,0.5-0.1,0.7c0,0.8,0.4,1.3,1.2,1.3c0.7,0,1.1-0.2,1.6-0.7l0.5,0.5
			c-0.6,0.6-1.3,0.8-2.2,0.8c-1.1,0-2-0.7-2-2c0-1.7,0.8-3.9,2.8-3.9c1.2,0,1.9,0.9,1.9,2C210.5,9.7,210.5,10.2,210.4,10.6z
			 M208.6,8.2c-0.8,0-1.5,0.6-1.8,1.9h2.9c0-0.2,0-0.3,0-0.6C209.8,8.6,209.2,8.2,208.6,8.2z"/>
		<path class="st1" d="M213.4,13.3h-0.7l-0.9-5.7h0.8l0.6,4.6l2.4-4.6h0.9L213.4,13.3z"/>
		<path class="st1" d="M217.3,13.3h-0.8l1.1-5.7h0.8L217.3,13.3z M218.8,5.9h-0.9l0.2-0.9h0.9L218.8,5.9z"/>
		<path class="st1" d="M223.5,8.8c-0.3-0.5-0.6-0.6-1.1-0.6c-0.4,0-0.9,0.2-1.3,0.6c-0.4,0.4-0.6,1.1-0.7,1.7
			c-0.1,0.3-0.1,0.6-0.1,0.9c0,1,0.6,1.4,1.2,1.4c0.5,0,0.9-0.2,1.4-0.7l0.5,0.6c-0.5,0.5-1.2,0.8-1.9,0.8c-1.4,0-2-0.9-2-2.1
			c0-0.2,0-0.6,0.1-0.9c0.3-1.9,1.4-2.9,2.9-2.9c0.8,0,1.3,0.3,1.7,0.9L223.5,8.8z"/>
		<path class="st1" d="M229.2,10.6h-3.7c0,0.2-0.1,0.5-0.1,0.7c0,0.8,0.4,1.3,1.2,1.3c0.7,0,1.1-0.2,1.6-0.7l0.5,0.5
			c-0.6,0.6-1.3,0.8-2.2,0.8c-1.1,0-2-0.7-2-2c0-1.7,0.8-3.9,2.8-3.9c1.2,0,1.9,0.9,1.9,2C229.4,9.7,229.3,10.2,229.2,10.6z
			 M227.5,8.2c-0.8,0-1.5,0.6-1.8,1.9h2.9c0-0.2,0-0.3,0-0.6C228.6,8.6,228.1,8.2,227.5,8.2z"/>
		<path class="st1" d="M234.4,8.6c-0.4-0.3-0.7-0.5-1.3-0.5c-1,0-1.4,0.6-1.4,1.2c0,0.4,0.3,0.6,0.9,0.7l0.8,0.1
			c1,0.2,1.4,0.6,1.4,1.4c0,0.4-0.2,0.9-0.6,1.2c-0.4,0.4-1.2,0.6-2,0.6c-1,0-1.6-0.3-2.1-0.8l0.6-0.5c0.4,0.4,0.8,0.7,1.6,0.7
			c1.1,0,1.7-0.6,1.7-1.2c0-0.5-0.3-0.7-0.8-0.7l-0.8-0.1c-1.2-0.2-1.4-0.8-1.4-1.2s0.2-0.9,0.5-1.3c0.4-0.4,1-0.6,1.8-0.6
			s1.4,0.2,1.8,0.6L234.4,8.6z"/>
	</g>
	<g>
		<g>
			<path class="st3" d="M217.7,380.1H214c0,0.2-0.1,0.5-0.1,0.7c0,0.8,0.4,1.3,1.2,1.3c0.7,0,1.1-0.2,1.6-0.7l0.5,0.5
				c-0.6,0.6-1.3,0.8-2.2,0.8c-1.1,0-2-0.7-2-2c0-1.7,0.8-3.9,2.8-3.9c1.2,0,1.9,0.9,1.9,2C217.8,379.2,217.8,379.7,217.7,380.1z
				 M215.9,377.6c-0.8,0-1.5,0.6-1.8,1.9h2.9c0-0.2,0-0.4,0-0.6C217,378,216.5,377.6,215.9,377.6z"/>
			<path class="st3" d="M219.7,382.8h-0.8l1.1-5.7h0.8L219.7,382.8z M221.2,375.4h-0.9l0.2-0.9h0.9L221.2,375.4z"/>
			<path class="st3" d="M225.7,378.1c-0.4-0.3-0.7-0.5-1.3-0.5c-1,0-1.4,0.6-1.4,1.2c0,0.4,0.3,0.6,0.9,0.7l0.8,0.1
				c1,0.2,1.4,0.6,1.4,1.4c0,0.4-0.2,0.9-0.6,1.2c-0.4,0.4-1.2,0.6-2,0.6c-1,0-1.6-0.3-2.1-0.8l0.6-0.5c0.4,0.4,0.8,0.7,1.6,0.7
				c1.1,0,1.7-0.6,1.7-1.2c0-0.5-0.3-0.7-0.8-0.7l-0.8-0.1c-1.2-0.2-1.4-0.8-1.4-1.2c0-0.4,0.2-0.9,0.5-1.3c0.4-0.4,1-0.6,1.8-0.6
				s1.4,0.2,1.8,0.6L225.7,378.1z"/>
			<path class="st3" d="M231.9,380.1h-3.7c0,0.2-0.1,0.5-0.1,0.7c0,0.8,0.4,1.3,1.2,1.3c0.7,0,1.1-0.2,1.6-0.7l0.5,0.5
				c-0.6,0.6-1.3,0.8-2.2,0.8c-1.1,0-2-0.7-2-2c0-1.7,0.8-3.9,2.8-3.9c1.2,0,1.9,0.9,1.9,2C232,379.2,232,379.7,231.9,380.1z
				 M230.1,377.6c-0.8,0-1.5,0.6-1.8,1.9h2.9c0-0.2,0-0.4,0-0.6C231.2,378,230.7,377.6,230.1,377.6z"/>
			<path class="st3" d="M233.9,382.8h-0.8l1.1-5.7h0.8L233.9,382.8z M235.4,375.4h-0.9l0.2-0.9h0.9L235.4,375.4z"/>
		</g>
		<g>
			<g>
				<path class="st1" d="M217.7,380.1H214c0,0.2-0.1,0.5-0.1,0.7c0,0.8,0.4,1.3,1.2,1.3c0.7,0,1.1-0.2,1.6-0.7l0.5,0.5
					c-0.6,0.6-1.3,0.8-2.2,0.8c-1.1,0-2-0.7-2-2c0-1.7,0.8-3.9,2.8-3.9c1.2,0,1.9,0.9,1.9,2C217.8,379.2,217.8,379.7,217.7,380.1z
					 M215.9,377.6c-0.8,0-1.5,0.6-1.8,1.9h2.9c0-0.2,0-0.4,0-0.6C217,378,216.5,377.6,215.9,377.6z"/>
				<path class="st1" d="M219.7,382.8h-0.8l1.1-5.7h0.8L219.7,382.8z M221.2,375.4h-0.9l0.2-0.9h0.9L221.2,375.4z"/>
				<path class="st1" d="M225.7,378.1c-0.4-0.3-0.7-0.5-1.3-0.5c-1,0-1.4,0.6-1.4,1.2c0,0.4,0.3,0.6,0.9,0.7l0.8,0.1
					c1,0.2,1.4,0.6,1.4,1.4c0,0.4-0.2,0.9-0.6,1.2c-0.4,0.4-1.2,0.6-2,0.6c-1,0-1.6-0.3-2.1-0.8l0.6-0.5c0.4,0.4,0.8,0.7,1.6,0.7
					c1.1,0,1.7-0.6,1.7-1.2c0-0.5-0.3-0.7-0.8-0.7l-0.8-0.1c-1.2-0.2-1.4-0.8-1.4-1.2c0-0.4,0.2-0.9,0.5-1.3c0.4-0.4,1-0.6,1.8-0.6
					s1.4,0.2,1.8,0.6L225.7,378.1z"/>
				<path class="st1" d="M231.9,380.1h-3.7c0,0.2-0.1,0.5-0.1,0.7c0,0.8,0.4,1.3,1.2,1.3c0.7,0,1.1-0.2,1.6-0.7l0.5,0.5
					c-0.6,0.6-1.3,0.8-2.2,0.8c-1.1,0-2-0.7-2-2c0-1.7,0.8-3.9,2.8-3.9c1.2,0,1.9,0.9,1.9,2C232,379.2,232,379.7,231.9,380.1z
					 M230.1,377.6c-0.8,0-1.5,0.6-1.8,1.9h2.9c0-0.2,0-0.4,0-0.6C231.2,378,230.7,377.6,230.1,377.6z"/>
				<path class="st1" d="M233.9,382.8h-0.8l1.1-5.7h0.8L233.9,382.8z M235.4,375.4h-0.9l0.2-0.9h0.9L235.4,375.4z"/>
			</g>
		</g>
	</g>
	<line class="st2" x1="6.9" y1="263.5" x2="268.8" y2="263.5"/>
	<line class="st2" x1="0.4" y1="371.1" x2="275.2" y2="371.1"/>
	<g>
		<line class="st2" x1="81.4" y1="362.3" x2="81.4" y2="272.3"/>
	</g>
	<g>
		<g>
			<path class="st1" d="M147.4,361.5"/>
		</g>
	</g>
	<g>
		<g>
			<path class="st1" d="M110,359.7"/>
		</g>
	</g>
	<g>
		<path class="st1" d="M153.1,359.5c-0.2,0.8-0.2,1.2-0.6,1.5c-0.3,0.3-0.6,0.4-1,0.4c-0.6,0-1-0.4-1-1c0-0.2,0-0.4,0.1-0.9
			c0.2-0.8,0.2-1.2,0.6-1.5c0.3-0.3,0.6-0.4,1-0.4c0.6,0,1,0.4,1,1C153.3,358.8,153.2,359,153.1,359.5z M152.2,358
			c-0.3,0-0.5,0.1-0.7,0.3c-0.2,0.2-0.3,0.5-0.4,1.2c-0.1,0.5-0.1,0.7-0.1,0.9c0,0.5,0.3,0.7,0.7,0.7c0.3,0,0.5-0.1,0.7-0.3
			c0.2-0.2,0.3-0.5,0.4-1.2c0.1-0.5,0.1-0.7,0.1-0.9C152.9,358.2,152.6,358,152.2,358z"/>
		<path class="st1" d="M156.4,360.2c-0.2,0.8-0.7,1.2-1.5,1.2c-0.5,0-1-0.3-1-1c0-0.1,0-0.2,0-0.3l0.5-2.4h0.4l-0.5,2.5
			c0,0.1,0,0.2,0,0.3c0,0.3,0.2,0.7,0.7,0.7s0.9-0.3,1.1-1l0.5-2.4h0.4L156.4,360.2z"/>
		<path class="st1" d="M160,358h-1l-0.7,3.4h-0.4l0.7-3.4h-1l0.1-0.3h2.4L160,358z"/>
		<path class="st1" d="M162.4,358.3c-0.2-0.2-0.4-0.3-0.7-0.3c-0.6,0-0.9,0.4-0.9,0.8c0,0.3,0.2,0.4,0.5,0.5l0.3,0.1
			c0.6,0.1,0.8,0.4,0.8,0.9c0,0.7-0.6,1.1-1.4,1.1c-0.5,0-0.8-0.2-1.1-0.5l0.3-0.2c0.2,0.3,0.5,0.4,0.9,0.4c0.5,0,1-0.3,1-0.8
			c0-0.4-0.2-0.5-0.5-0.6l-0.3-0.1c-0.4-0.1-0.8-0.3-0.8-0.8s0.4-1.2,1.3-1.2c0.4,0,0.7,0.1,1,0.4L162.4,358.3z"/>
	</g>
	<g>
		<path class="st1" d="M22.4,357.9l0.5,1.7h-0.4l-0.5-1.7h-0.9l-0.3,1.7h-0.4l0.7-3.7h1.3c0.7,0,0.9,0.4,0.9,0.9
			C23.4,357.2,23,357.7,22.4,357.9z M22.4,356.2h-0.9l-0.3,1.4h0.9c0.6,0,0.9-0.4,0.9-0.8C23,356.4,22.8,356.2,22.4,356.2z"/>
		<path class="st1" d="M26.6,356.2h-1.8l-0.3,1.3H26l-0.1,0.3h-1.5l-0.3,1.4h1.8l-0.1,0.3h-2.2l0.7-3.7h2.2L26.6,356.2z"/>
		<path class="st1" d="M29.2,356.9c0-0.5-0.3-0.8-0.7-0.8c-0.3,0-0.5,0.1-0.7,0.3c-0.2,0.2-0.3,0.5-0.4,1.2
			c-0.1,0.5-0.1,0.7-0.1,0.9c0,0.4,0.3,0.7,0.7,0.7c0.5,0,0.8-0.4,1-0.8h0.4c-0.2,0.7-0.8,1.1-1.4,1.1s-1.1-0.4-1.1-1
			c0-0.1,0-0.3,0.1-0.9c0.2-0.8,0.2-1.2,0.6-1.5c0.2-0.2,0.6-0.4,1-0.4c0.7,0,1.1,0.5,1.1,1.1L29.2,356.9L29.2,356.9z"/>
	</g>
	<g>
		<path class="st1" d="M59.6,311.4h-0.5l0.7-3.7h0.5L59.6,311.4z M60.6,306.7H60l0.1-0.5h0.6L60.6,306.7z"/>
		<path class="st1" d="M64.2,309.1l-0.5,2.3h-0.5l0.5-2.3c0-0.1,0-0.2,0-0.3c0-0.4-0.3-0.6-0.7-0.6c-0.3,0-0.9,0.1-1.1,1l-0.4,2.2
			H61l0.7-3.7h0.5l-0.1,0.4c0.2-0.3,0.6-0.5,1.1-0.5c0.6,0,1,0.4,1,1C64.3,308.9,64.3,309,64.2,309.1z"/>
	</g>
	<g>
		<path class="st1" d="M15.5,63.3h-0.3l-0.4-3.8h0.4l0.3,3.1l1.5-3.1h0.4L15.5,63.3z"/>
		<path class="st1" d="M17,63.7h-0.4l2.3-4.6h0.4L17,63.7z"/>
		<path class="st1" d="M20.8,61.3c0.2,0.2,0.4,0.4,0.4,0.8c0,0.6-0.4,1.2-1.2,1.2c-0.5,0-0.9-0.3-0.9-0.9c0-0.5,0.2-0.9,0.7-1.1
			c-0.2-0.1-0.3-0.3-0.3-0.6c0-0.7,0.5-1.2,1.1-1.2c0.5,0,0.9,0.3,0.9,0.9C21.4,60.8,21.2,61.2,20.8,61.3z M20.2,61.5
			c-0.5,0-0.8,0.4-0.8,0.9c0,0.4,0.2,0.6,0.6,0.6c0.5,0,0.8-0.4,0.8-0.9C20.8,61.7,20.6,61.5,20.2,61.5z M20.6,59.8
			c-0.5,0-0.8,0.4-0.8,0.8c0,0.3,0.2,0.5,0.5,0.5c0.5,0,0.8-0.4,0.8-0.8C21.1,60,20.9,59.8,20.6,59.8z"/>
	</g>
	<g>
		<path class="st1" d="M23.5,308.3c-0.2-0.2-0.4-0.3-0.7-0.3c-0.6,0-0.9,0.4-0.9,0.8c0,0.3,0.2,0.4,0.5,0.5l0.3,0.1
			c0.6,0.1,0.8,0.4,0.8,0.9c0,0.7-0.6,1.1-1.4,1.1c-0.5,0-0.8-0.2-1.1-0.5l0.3-0.2c0.2,0.3,0.5,0.4,0.9,0.4c0.5,0,1-0.3,1-0.8
			c0-0.4-0.2-0.5-0.5-0.6l-0.3-0.1c-0.4-0.1-0.8-0.3-0.8-0.8s0.4-1.2,1.3-1.2c0.4,0,0.7,0.1,1,0.4L23.5,308.3z"/>
		<path class="st1" d="M26.9,308h-1.8l-0.3,1.3h1.5l-0.1,0.3h-1.5l-0.3,1.4h1.8l-0.1,0.3h-2.2l0.7-3.7H27L26.9,308z"/>
		<path class="st1" d="M30,308h-1l-0.7,3.4h-0.4l0.7-3.4h-1l0.1-0.3H30V308z"/>
	</g>
	<g>
		<path class="st1" d="M249.7,358.9l-0.5,2.5h-0.5l0.1-0.4c-0.3,0.3-0.6,0.4-1,0.4c-0.6,0-1.1-0.2-1.1-0.9c0-0.3,0.1-0.6,0.3-0.9
			c0.3-0.3,0.7-0.4,1.1-0.4h1.1l0.1-0.4c0-0.1,0-0.2,0-0.2c0-0.4-0.3-0.5-0.7-0.5c-0.5,0-0.7,0.1-1,0.4l-0.3-0.4
			c0.3-0.4,0.7-0.5,1.3-0.5c0.5,0,1.2,0.2,1.2,0.9C249.8,358.7,249.7,358.8,249.7,358.9z M248.1,359.6c-0.6,0-0.9,0.3-0.9,0.8
			c0,0.3,0.2,0.5,0.7,0.5c0.3,0,0.6-0.1,0.8-0.3c0.1-0.1,0.3-0.3,0.3-0.6l0.1-0.4H248.1z"/>
		<path class="st1" d="M251.3,360.4c0,0.1,0,0.2,0,0.2c0,0.2,0.1,0.3,0.4,0.3h0.3l-0.1,0.4h-0.4c-0.3,0-0.7-0.2-0.7-0.7
			c0-0.1,0-0.2,0-0.3l0.9-4.3h0.5L251.3,360.4z"/>
		<path class="st1" d="M253.5,360.4c0,0.1,0,0.2,0,0.2c0,0.2,0.1,0.3,0.4,0.3h0.3l-0.1,0.4h-0.4c-0.3,0-0.7-0.2-0.7-0.7
			c0-0.1,0-0.2,0-0.3l0.9-4.3h0.5L253.5,360.4z"/>
	</g>
	<g id="CIRCLE_00000080182701276946601190000008199101617767807636_">
		<g>
			<path class="st1" d="M244.4,308.4c-0.1-0.1-0.3-0.3-0.5-0.3c-0.5,0-0.9,0.4-1.1,1l-0.4,2.2h-0.5l0.7-3.7h0.5L243,308
				c0.2-0.3,0.6-0.5,1-0.5c0.3,0,0.6,0.1,0.8,0.3L244.4,308.4z"/>
			<path class="st1" d="M247.9,309.7h-2.4c0,0.2,0,0.3,0,0.5c0,0.5,0.2,0.8,0.8,0.8c0.4,0,0.7-0.1,1-0.4l0.3,0.3
				c-0.4,0.4-0.8,0.5-1.4,0.5c-0.7,0-1.2-0.4-1.2-1.3c0-1.1,0.5-2.5,1.8-2.5c0.8,0,1.2,0.6,1.2,1.3C248,309.1,248,309.4,247.9,309.7
				z M246.8,308.1c-0.5,0-0.9,0.4-1.2,1.2h1.8c0-0.1,0-0.2,0-0.4C247.5,308.4,247.2,308.1,246.8,308.1z"/>
			<path class="st1" d="M251.4,308.4c-0.2-0.2-0.5-0.3-0.9-0.3c-0.6,0-0.9,0.4-0.9,0.7c0,0.2,0.2,0.4,0.5,0.4l0.5,0.1
				c0.6,0.1,0.9,0.4,0.9,0.9c0,0.3-0.1,0.5-0.4,0.8c-0.3,0.3-0.8,0.4-1.3,0.4c-0.6,0-1-0.2-1.3-0.5l0.4-0.3c0.2,0.3,0.5,0.4,1,0.4
				c0.7,0,1.1-0.4,1.1-0.7c0-0.3-0.2-0.4-0.5-0.5l-0.5-0.1c-0.8-0.1-0.9-0.5-0.9-0.8s0.1-0.6,0.3-0.8c0.3-0.3,0.6-0.4,1.2-0.4
				c0.5,0,0.9,0.1,1.2,0.4L251.4,308.4z"/>
			<path class="st1" d="M255.4,309.7H253c0,0.2,0,0.3,0,0.5c0,0.5,0.2,0.8,0.8,0.8c0.4,0,0.7-0.1,1-0.4l0.3,0.3
				c-0.4,0.4-0.8,0.5-1.4,0.5c-0.7,0-1.2-0.4-1.2-1.3c0-1.1,0.5-2.5,1.8-2.5c0.8,0,1.2,0.6,1.2,1.3
				C255.5,309.1,255.5,309.4,255.4,309.7z M254.3,308.1c-0.5,0-0.9,0.4-1.2,1.2h1.8c0-0.1,0-0.2,0-0.4
				C255,308.4,254.7,308.1,254.3,308.1z"/>
			<path class="st1" d="M258.2,308.1h-0.7l-0.5,2.2c0,0.1,0,0.2,0,0.2c0,0.2,0.1,0.3,0.4,0.3h0.3l-0.1,0.4h-0.4
				c-0.3,0-0.8-0.2-0.8-0.7c0-0.1,0-0.2,0-0.3l0.4-2.2h-0.5l0.1-0.4h0.5l0.2-1.1h0.5l-0.2,1.1h0.7L258.2,308.1z"/>
		</g>
	</g>
	<g id="CIRCLE_00000168809326231630080480000006082314207059196603_">
		<g>
			<g>
				<path class="st1" d="M42.7,202.4h-0.5c-0.2,0-0.4,0-0.6-0.1s-0.3-0.2-0.3-0.4s-0.1-0.3-0.1-0.5v-2.1h-0.4v-0.6h0.4v-1.1H42v1.1
					h0.7v0.6H42v2c0,0.3,0.1,0.4,0.4,0.4h0.3V202.4z"/>
				<path class="st1" d="M44.6,197.9h-0.8v-0.8h0.8V197.9z M44.6,202.4h-0.8v-3.8h0.8V202.4z"/>
				<path class="st1" d="M51.2,202.4h-0.8v-2.3c0-0.3-0.1-0.5-0.2-0.6s-0.3-0.2-0.5-0.2s-0.4,0.1-0.6,0.2c-0.2,0.1-0.2,0.3-0.2,0.6
					v2.3h-0.8v-2.3c0-0.2,0-0.3-0.1-0.5c-0.1-0.1-0.2-0.2-0.3-0.3s-0.2-0.1-0.4-0.1s-0.4,0.1-0.6,0.2c-0.1,0.1-0.2,0.3-0.2,0.6v2.3
					h-0.8v-3.8h0.7v0.4c0.1-0.1,0.3-0.2,0.4-0.3s0.4-0.1,0.6-0.1c0.5,0,0.8,0.2,1.1,0.6c0.3-0.4,0.7-0.6,1.2-0.6
					c0.4,0,0.7,0.1,0.9,0.3c0.3,0.3,0.4,0.6,0.4,1.1v2.5H51.2z"/>
				<path class="st1" d="M55.6,200.7h-2.4c0,0.2,0,0.4,0.1,0.6c0.1,0.2,0.2,0.3,0.3,0.4c0.1,0.1,0.3,0.1,0.5,0.1s0.4,0,0.5-0.1
					s0.3-0.2,0.4-0.3l0.5,0.4c-0.2,0.2-0.4,0.4-0.6,0.4c-0.2,0.1-0.5,0.1-0.8,0.1c-0.2,0-0.5,0-0.7-0.1s-0.4-0.2-0.5-0.3
					c-0.2-0.2-0.3-0.4-0.4-0.6c-0.1-0.2-0.1-0.5-0.1-0.9s0.1-0.7,0.2-1c0.1-0.3,0.3-0.5,0.6-0.7c0.2-0.2,0.5-0.2,0.8-0.2
					s0.6,0.1,0.9,0.2c0.2,0.2,0.4,0.4,0.6,0.6c0.1,0.3,0.2,0.6,0.2,0.9L55.6,200.7L55.6,200.7z M54.8,200.2c0-0.2,0-0.4-0.1-0.5
					s-0.2-0.3-0.3-0.3c-0.1-0.1-0.3-0.1-0.5-0.1s-0.3,0-0.5,0.1c-0.1,0.1-0.2,0.2-0.3,0.3c0,0.1-0.1,0.1-0.1,0.2c0,0.1,0,0.2,0,0.3
					H54.8z"/>
			</g>
			<g>
				<path class="st1" d="M42.7,202.4h-0.5c-0.2,0-0.4,0-0.6-0.1s-0.3-0.2-0.3-0.4s-0.1-0.3-0.1-0.5v-2.1h-0.4v-0.6h0.4v-1.1H42v1.1
					h0.7v0.6H42v2c0,0.3,0.1,0.4,0.4,0.4h0.3V202.4z"/>
				<path class="st1" d="M44.6,197.9h-0.8v-0.8h0.8V197.9z M44.6,202.4h-0.8v-3.8h0.8V202.4z"/>
				<path class="st1" d="M51.2,202.4h-0.8v-2.3c0-0.3-0.1-0.5-0.2-0.6s-0.3-0.2-0.5-0.2s-0.4,0.1-0.6,0.2c-0.2,0.1-0.2,0.3-0.2,0.6
					v2.3h-0.8v-2.3c0-0.2,0-0.3-0.1-0.5c-0.1-0.1-0.2-0.2-0.3-0.3s-0.2-0.1-0.4-0.1s-0.4,0.1-0.6,0.2c-0.1,0.1-0.2,0.3-0.2,0.6v2.3
					h-0.8v-3.8h0.7v0.4c0.1-0.1,0.3-0.2,0.4-0.3s0.4-0.1,0.6-0.1c0.5,0,0.8,0.2,1.1,0.6c0.3-0.4,0.7-0.6,1.2-0.6
					c0.4,0,0.7,0.1,0.9,0.3c0.3,0.3,0.4,0.6,0.4,1.1v2.5H51.2z"/>
				<path class="st1" d="M55.6,200.7h-2.4c0,0.2,0,0.4,0.1,0.6c0.1,0.2,0.2,0.3,0.3,0.4c0.1,0.1,0.3,0.1,0.5,0.1s0.4,0,0.5-0.1
					s0.3-0.2,0.4-0.3l0.5,0.4c-0.2,0.2-0.4,0.4-0.6,0.4c-0.2,0.1-0.5,0.1-0.8,0.1c-0.2,0-0.5,0-0.7-0.1s-0.4-0.2-0.5-0.3
					c-0.2-0.2-0.3-0.4-0.4-0.6c-0.1-0.2-0.1-0.5-0.1-0.9s0.1-0.7,0.2-1c0.1-0.3,0.3-0.5,0.6-0.7c0.2-0.2,0.5-0.2,0.8-0.2
					s0.6,0.1,0.9,0.2c0.2,0.2,0.4,0.4,0.6,0.6c0.1,0.3,0.2,0.6,0.2,0.9L55.6,200.7L55.6,200.7z M54.8,200.2c0-0.2,0-0.4-0.1-0.5
					s-0.2-0.3-0.3-0.3c-0.1-0.1-0.3-0.1-0.5-0.1s-0.3,0-0.5,0.1c-0.1,0.1-0.2,0.2-0.3,0.3c0,0.1-0.1,0.1-0.1,0.2c0,0.1,0,0.2,0,0.3
					H54.8z"/>
			</g>
		</g>
	</g>
	<g id="CIRCLE_00000105392000820080279230000015174215513961312131_">
		<g>
			<g>
				<path class="st1" d="M237.1,175.3h-0.5c-0.3,0-0.6-0.1-0.8-0.3s-0.3-0.4-0.3-0.7V170h0.8v4.2c0,0.2,0,0.3,0.1,0.3
					s0.2,0.1,0.3,0.1h0.3L237.1,175.3L237.1,175.3z"/>
				<path class="st1" d="M241.1,173.6h-2.4c0,0.2,0,0.4,0.1,0.6c0.1,0.2,0.2,0.3,0.3,0.4c0.1,0.1,0.3,0.1,0.5,0.1s0.4,0,0.5-0.1
					s0.3-0.2,0.4-0.3l0.5,0.4c-0.2,0.2-0.4,0.4-0.6,0.4c-0.2,0.1-0.5,0.1-0.8,0.1c-0.2,0-0.5,0-0.7-0.1s-0.4-0.2-0.5-0.3
					c-0.2-0.2-0.3-0.4-0.4-0.6s-0.1-0.5-0.1-0.9s0.1-0.7,0.2-1c0.1-0.3,0.3-0.5,0.6-0.7s0.5-0.2,0.8-0.2s0.6,0.1,0.9,0.2
					s0.4,0.4,0.6,0.6c0.1,0.3,0.2,0.6,0.2,0.9v0.5H241.1z M240.3,173.1c0-0.2,0-0.4-0.1-0.5s-0.2-0.3-0.3-0.3
					c-0.1-0.1-0.3-0.1-0.5-0.1s-0.3,0-0.5,0.1c-0.1,0.1-0.2,0.2-0.3,0.3c0,0.1-0.1,0.1-0.1,0.2c0,0.1,0,0.2,0,0.3H240.3z"/>
				<path class="st1" d="M245.3,175.3h-0.8V173c0-0.2,0-0.3-0.1-0.5c-0.1-0.1-0.2-0.2-0.3-0.3s-0.2-0.1-0.4-0.1s-0.4,0.1-0.6,0.2
					c-0.1,0.1-0.2,0.3-0.2,0.6v2.3h-0.8v-3.8h0.7v0.4c0.1-0.1,0.3-0.2,0.5-0.3s0.4-0.1,0.5-0.1c0.4,0,0.7,0.1,0.9,0.3
					c0.3,0.2,0.4,0.6,0.4,1.1v2.5H245.3z"/>
				<path class="st1" d="M249.4,174.1c0,0.3-0.1,0.5-0.2,0.7c-0.1,0.2-0.3,0.3-0.6,0.4c-0.2,0.1-0.5,0.1-0.8,0.1c-0.2,0-0.4,0-0.6,0
					s-0.4-0.1-0.5-0.2c-0.2-0.1-0.3-0.2-0.5-0.3l0.5-0.5c0.3,0.3,0.6,0.4,1.1,0.4c0.2,0,0.3,0,0.4-0.1c0.1,0,0.2-0.1,0.3-0.2
					c0.1-0.1,0.1-0.2,0.1-0.3c0-0.3-0.2-0.4-0.5-0.4l-0.6-0.1c-0.2,0-0.4-0.1-0.6-0.2c-0.2-0.1-0.3-0.2-0.4-0.3s-0.1-0.3-0.1-0.5
					c0-0.4,0.1-0.6,0.4-0.8c0.3-0.2,0.6-0.3,1-0.3c0.6,0,1.1,0.1,1.4,0.4l-0.5,0.5c-0.2-0.2-0.5-0.3-0.9-0.3c-0.2,0-0.4,0-0.5,0.1
					s-0.2,0.2-0.2,0.4c0,0.3,0.2,0.4,0.5,0.4l0.6,0.1c0.2,0,0.4,0.1,0.6,0.2s0.3,0.2,0.4,0.4C249.4,173.7,249.4,173.9,249.4,174.1z"
					/>
			</g>
			<g>
				<path class="st1" d="M237.1,175.3h-0.5c-0.3,0-0.6-0.1-0.8-0.3s-0.3-0.4-0.3-0.7V170h0.8v4.2c0,0.2,0,0.3,0.1,0.3
					s0.2,0.1,0.3,0.1h0.3L237.1,175.3L237.1,175.3z"/>
				<path class="st1" d="M241.1,173.6h-2.4c0,0.2,0,0.4,0.1,0.6c0.1,0.2,0.2,0.3,0.3,0.4c0.1,0.1,0.3,0.1,0.5,0.1s0.4,0,0.5-0.1
					s0.3-0.2,0.4-0.3l0.5,0.4c-0.2,0.2-0.4,0.4-0.6,0.4c-0.2,0.1-0.5,0.1-0.8,0.1c-0.2,0-0.5,0-0.7-0.1s-0.4-0.2-0.5-0.3
					c-0.2-0.2-0.3-0.4-0.4-0.6s-0.1-0.5-0.1-0.9s0.1-0.7,0.2-1c0.1-0.3,0.3-0.5,0.6-0.7s0.5-0.2,0.8-0.2s0.6,0.1,0.9,0.2
					s0.4,0.4,0.6,0.6c0.1,0.3,0.2,0.6,0.2,0.9v0.5H241.1z M240.3,173.1c0-0.2,0-0.4-0.1-0.5s-0.2-0.3-0.3-0.3
					c-0.1-0.1-0.3-0.1-0.5-0.1s-0.3,0-0.5,0.1c-0.1,0.1-0.2,0.2-0.3,0.3c0,0.1-0.1,0.1-0.1,0.2c0,0.1,0,0.2,0,0.3H240.3z"/>
				<path class="st1" d="M245.3,175.3h-0.8V173c0-0.2,0-0.3-0.1-0.5c-0.1-0.1-0.2-0.2-0.3-0.3s-0.2-0.1-0.4-0.1s-0.4,0.1-0.6,0.2
					c-0.1,0.1-0.2,0.3-0.2,0.6v2.3h-0.8v-3.8h0.7v0.4c0.1-0.1,0.3-0.2,0.5-0.3s0.4-0.1,0.5-0.1c0.4,0,0.7,0.1,0.9,0.3
					c0.3,0.2,0.4,0.6,0.4,1.1v2.5H245.3z"/>
				<path class="st1" d="M249.4,174.1c0,0.3-0.1,0.5-0.2,0.7c-0.1,0.2-0.3,0.3-0.6,0.4c-0.2,0.1-0.5,0.1-0.8,0.1c-0.2,0-0.4,0-0.6,0
					s-0.4-0.1-0.5-0.2c-0.2-0.1-0.3-0.2-0.5-0.3l0.5-0.5c0.3,0.3,0.6,0.4,1.1,0.4c0.2,0,0.3,0,0.4-0.1c0.1,0,0.2-0.1,0.3-0.2
					c0.1-0.1,0.1-0.2,0.1-0.3c0-0.3-0.2-0.4-0.5-0.4l-0.6-0.1c-0.2,0-0.4-0.1-0.6-0.2c-0.2-0.1-0.3-0.2-0.4-0.3s-0.1-0.3-0.1-0.5
					c0-0.4,0.1-0.6,0.4-0.8c0.3-0.2,0.6-0.3,1-0.3c0.6,0,1.1,0.1,1.4,0.4l-0.5,0.5c-0.2-0.2-0.5-0.3-0.9-0.3c-0.2,0-0.4,0-0.5,0.1
					s-0.2,0.2-0.2,0.4c0,0.3,0.2,0.4,0.5,0.4l0.6,0.1c0.2,0,0.4,0.1,0.6,0.2s0.3,0.2,0.4,0.4C249.4,173.7,249.4,173.9,249.4,174.1z"
					/>
			</g>
		</g>
	</g>
	<g>
		<circle class="st2" cx="268.8" cy="144.3" r="1"/>
		<circle class="st2" cx="229.5" cy="120.8" r="1"/>
		<circle class="st2" cx="219.7" cy="130.4" r="1"/>
		<circle class="st2" cx="216" cy="143.5" r="1"/>
		<circle class="st2" cx="219.3" cy="156.8" r="1"/>
		<circle class="st2" cx="228.8" cy="166.6" r="1"/>
		<path class="st2" d="M255.2,166c0.6,0,1,0.4,1,1s-0.4,1-1,1s-1-0.4-1-1S254.6,166,255.2,166z"/>
		<circle class="st2" cx="265" cy="157.5" r="1"/>
		<circle class="st2" cx="265.4" cy="131.1" r="1"/>
		<circle class="st2" cx="255.9" cy="121.3" r="1"/>
	</g>
	<g id="CIRCLE_00000048500046454585478370000004169505500294763188_">
		<g>
			<g>
				<path class="st1" d="M28.9,173.4c0,0.3,0,0.6-0.1,0.9c-0.1,0.2-0.2,0.4-0.4,0.6c-0.3,0.3-0.7,0.4-1.1,0.4
					c-0.5,0-0.8-0.1-1.1-0.4c-0.2-0.2-0.3-0.4-0.4-0.6s-0.1-0.5-0.1-0.9c0-0.3,0-0.6,0.1-0.9c0.1-0.2,0.2-0.4,0.3-0.6
					c0.1-0.1,0.2-0.2,0.3-0.2s0.2-0.1,0.4-0.2c0.1,0,0.3-0.1,0.5-0.1s0.5,0,0.7,0.1s0.3,0.2,0.5,0.3c0.2,0.2,0.3,0.4,0.3,0.6
					S28.9,173,28.9,173.4z M28.2,173.4c0-0.2,0-0.5-0.1-0.6c0-0.2-0.1-0.3-0.2-0.4c-0.1-0.1-0.3-0.2-0.6-0.2c-0.2,0-0.4,0.1-0.6,0.2
					c-0.1,0.1-0.2,0.2-0.2,0.4s-0.1,0.4-0.1,0.6c0,0.2,0,0.4,0.1,0.6c0,0.2,0.1,0.3,0.2,0.4c0.1,0.2,0.3,0.2,0.6,0.2
					c0.2,0,0.4-0.1,0.6-0.2c0.1-0.1,0.2-0.2,0.2-0.4C28.2,173.8,28.2,173.6,28.2,173.4z"/>
				<path class="st1" d="M32.6,171.8l-0.6,0.6c-0.1-0.1-0.2-0.2-0.2-0.2c-0.1,0-0.2-0.1-0.3-0.1c-0.1,0-0.3,0-0.4,0.1
					s-0.2,0.2-0.3,0.3c-0.1,0.1-0.1,0.3-0.1,0.4v2.3H30v-3.8h0.7v0.4c0.1-0.1,0.2-0.2,0.4-0.3c0.2-0.1,0.4-0.1,0.6-0.1
					s0.3,0,0.5,0.1C32.3,171.6,32.5,171.7,32.6,171.8z"/>
				<path class="st1" d="M36.3,173.4c0,0.2,0,0.4,0,0.6c0,0.2-0.1,0.4-0.1,0.5c-0.1,0.2-0.2,0.3-0.3,0.4c-0.1,0.1-0.2,0.2-0.4,0.2
					c-0.2,0.1-0.3,0.1-0.5,0.1s-0.4,0-0.6-0.1c-0.2-0.1-0.3-0.2-0.4-0.3v0.4h-0.7V170H34v1.9c0.1-0.2,0.3-0.3,0.4-0.3
					s0.3-0.1,0.6-0.1c0.2,0,0.4,0,0.5,0.1s0.3,0.1,0.4,0.2c0.1,0.1,0.2,0.3,0.3,0.4c0.1,0.2,0.1,0.3,0.1,0.5
					C36.3,172.9,36.3,173.1,36.3,173.4z M35.5,173.4c0-0.3,0-0.5-0.1-0.7s-0.1-0.3-0.2-0.4s-0.3-0.2-0.5-0.2s-0.4,0.1-0.5,0.2
					c-0.1,0.1-0.2,0.3-0.2,0.4c0,0.2-0.1,0.4-0.1,0.7s0,0.5,0.1,0.7c0,0.2,0.1,0.3,0.2,0.4c0.1,0.1,0.3,0.2,0.5,0.2
					c0.3,0,0.5-0.1,0.6-0.3C35.5,174.1,35.5,173.8,35.5,173.4z"/>
				<path class="st1" d="M38.1,170.7h-0.8v-0.8h0.8V170.7z M38.1,175.3h-0.8v-3.8h0.8V175.3z"/>
				<path class="st1" d="M40.9,175.3h-0.5c-0.2,0-0.4,0-0.6-0.1s-0.3-0.2-0.3-0.4s-0.1-0.3-0.1-0.5v-2.1H39v-0.6h0.4v-1.1h0.8v1.1
					h0.7v0.6h-0.7v2c0,0.3,0.1,0.4,0.4,0.4h0.3C40.9,174.6,40.9,175.3,40.9,175.3z"/>
			</g>
			<g>
				<path class="st1" d="M28.9,173.4c0,0.3,0,0.6-0.1,0.9c-0.1,0.2-0.2,0.4-0.4,0.6c-0.3,0.3-0.7,0.4-1.1,0.4
					c-0.5,0-0.8-0.1-1.1-0.4c-0.2-0.2-0.3-0.4-0.4-0.6s-0.1-0.5-0.1-0.9c0-0.3,0-0.6,0.1-0.9c0.1-0.2,0.2-0.4,0.3-0.6
					c0.1-0.1,0.2-0.2,0.3-0.2s0.2-0.1,0.4-0.2c0.1,0,0.3-0.1,0.5-0.1s0.5,0,0.7,0.1s0.3,0.2,0.5,0.3c0.2,0.2,0.3,0.4,0.3,0.6
					S28.9,173,28.9,173.4z M28.2,173.4c0-0.2,0-0.5-0.1-0.6c0-0.2-0.1-0.3-0.2-0.4c-0.1-0.1-0.3-0.2-0.6-0.2c-0.2,0-0.4,0.1-0.6,0.2
					c-0.1,0.1-0.2,0.2-0.2,0.4s-0.1,0.4-0.1,0.6c0,0.2,0,0.4,0.1,0.6c0,0.2,0.1,0.3,0.2,0.4c0.1,0.2,0.3,0.2,0.6,0.2
					c0.2,0,0.4-0.1,0.6-0.2c0.1-0.1,0.2-0.2,0.2-0.4C28.2,173.8,28.2,173.6,28.2,173.4z"/>
				<path class="st1" d="M32.6,171.8l-0.6,0.6c-0.1-0.1-0.2-0.2-0.2-0.2c-0.1,0-0.2-0.1-0.3-0.1c-0.1,0-0.3,0-0.4,0.1
					s-0.2,0.2-0.3,0.3c-0.1,0.1-0.1,0.3-0.1,0.4v2.3H30v-3.8h0.7v0.4c0.1-0.1,0.2-0.2,0.4-0.3c0.2-0.1,0.4-0.1,0.6-0.1
					s0.3,0,0.5,0.1C32.3,171.6,32.5,171.7,32.6,171.8z"/>
				<path class="st1" d="M36.3,173.4c0,0.2,0,0.4,0,0.6c0,0.2-0.1,0.4-0.1,0.5c-0.1,0.2-0.2,0.3-0.3,0.4c-0.1,0.1-0.2,0.2-0.4,0.2
					c-0.2,0.1-0.3,0.1-0.5,0.1s-0.4,0-0.6-0.1c-0.2-0.1-0.3-0.2-0.4-0.3v0.4h-0.7V170H34v1.9c0.1-0.2,0.3-0.3,0.4-0.3
					s0.3-0.1,0.6-0.1c0.2,0,0.4,0,0.5,0.1s0.3,0.1,0.4,0.2c0.1,0.1,0.2,0.3,0.3,0.4c0.1,0.2,0.1,0.3,0.1,0.5
					C36.3,172.9,36.3,173.1,36.3,173.4z M35.5,173.4c0-0.3,0-0.5-0.1-0.7s-0.1-0.3-0.2-0.4s-0.3-0.2-0.5-0.2s-0.4,0.1-0.5,0.2
					c-0.1,0.1-0.2,0.3-0.2,0.4c0,0.2-0.1,0.4-0.1,0.7s0,0.5,0.1,0.7c0,0.2,0.1,0.3,0.2,0.4c0.1,0.1,0.3,0.2,0.5,0.2
					c0.3,0,0.5-0.1,0.6-0.3C35.5,174.1,35.5,173.8,35.5,173.4z"/>
				<path class="st1" d="M38.1,170.7h-0.8v-0.8h0.8V170.7z M38.1,175.3h-0.8v-3.8h0.8V175.3z"/>
				<path class="st1" d="M40.9,175.3h-0.5c-0.2,0-0.4,0-0.6-0.1s-0.3-0.2-0.3-0.4s-0.1-0.3-0.1-0.5v-2.1H39v-0.6h0.4v-1.1h0.8v1.1
					h0.7v0.6h-0.7v2c0,0.3,0.1,0.4,0.4,0.4h0.3C40.9,174.6,40.9,175.3,40.9,175.3z"/>
			</g>
		</g>
	</g>
	<g>
		<g>
			<g>
				<path class="st1" d="M85.7,80c0.4,0.2,0.6,0.5,0.6,1c0,1-0.7,1.7-1.7,1.7h-2.1l1.1-5.3h1.8c1.1,0,1.3,0.7,1.3,1.2
					C86.7,79,86.5,79.7,85.7,80z M85,80.2h-1.4l-0.4,2h1.4c0.7,0,1.2-0.5,1.2-1.2C85.8,80.5,85.5,80.2,85,80.2z M85.3,77.8H84
					l-0.4,1.9H85c0.7,0,1.2-0.5,1.2-1.1C86.2,78.2,86,77.8,85.3,77.8z"/>
			</g>
		</g>
		<g>
			<path class="st1" d="M85.7,80c0.4,0.2,0.6,0.5,0.6,1c0,1-0.7,1.7-1.7,1.7h-2.1l1.1-5.3h1.8c1.1,0,1.3,0.7,1.3,1.2
				C86.7,79,86.5,79.7,85.7,80z M85,80.2h-1.4l-0.4,2h1.4c0.7,0,1.2-0.5,1.2-1.2C85.8,80.5,85.5,80.2,85,80.2z M85.3,77.8H84
				l-0.4,1.9H85c0.7,0,1.2-0.5,1.2-1.1C86.2,78.2,86,77.8,85.3,77.8z"/>
		</g>
	</g>
	<g>
		<g>
			<g>
				<path class="st1" d="M49,78.9c0-0.7-0.4-1.1-1-1.1c-0.4,0-0.7,0.2-1,0.4c-0.3,0.3-0.4,0.7-0.6,1.8c-0.1,0.7-0.2,1-0.2,1.2
					c0,0.6,0.5,1,1,1c0.7,0,1.2-0.5,1.4-1.1h0.5c-0.3,1-1.1,1.6-2,1.6c-0.8,0-1.5-0.5-1.5-1.4c0-0.2,0-0.5,0.2-1.3
					c0.2-1.2,0.3-1.7,0.8-2.1c0.3-0.3,0.9-0.6,1.4-0.6c1,0,1.5,0.7,1.5,1.5L49,78.9L49,78.9z"/>
			</g>
		</g>
		<g>
			<path class="st1" d="M49,78.9c0-0.7-0.4-1.1-1-1.1c-0.4,0-0.7,0.2-1,0.4c-0.3,0.3-0.4,0.7-0.6,1.8c-0.1,0.7-0.2,1-0.2,1.2
				c0,0.6,0.5,1,1,1c0.7,0,1.2-0.5,1.4-1.1h0.5c-0.3,1-1.1,1.6-2,1.6c-0.8,0-1.5-0.5-1.5-1.4c0-0.2,0-0.5,0.2-1.3
				c0.2-1.2,0.3-1.7,0.8-2.1c0.3-0.3,0.9-0.6,1.4-0.6c1,0,1.5,0.7,1.5,1.5L49,78.9L49,78.9z"/>
		</g>
	</g>
	<g>
		<g>
			<g>
				<path class="st1" d="M48,26.5h-2.6L45,28.4h2.2l-0.1,0.5h-2.2l-0.4,2h2.6L47,31.4h-3.2l1.1-5.3H48L48,26.5z"/>
			</g>
		</g>
		<g>
			<path class="st1" d="M48,26.5h-2.6L45,28.4h2.2l-0.1,0.5h-2.2l-0.4,2h2.6L47,31.4h-3.2l1.1-5.3H48L48,26.5z"/>
		</g>
	</g>
	<g>
		<g>
			<g>
				<path class="st1" d="M87.9,27.6c0-0.7-0.4-1.1-1-1.1c-0.4,0-0.7,0.1-1,0.4s-0.4,0.7-0.6,1.8c-0.1,0.7-0.2,1-0.2,1.2
					c0,0.7,0.5,1,1,1s1.3-0.4,1.5-1.4l0.1-0.4h-1.2l0.1-0.5h1.8l-0.2,0.8c-0.1,0.6-0.3,1-0.7,1.4c-0.3,0.3-0.8,0.6-1.4,0.6
					c-0.8,0-1.5-0.5-1.5-1.4c0-0.3,0-0.6,0.2-1.3c0.2-1.3,0.4-1.7,0.8-2.1c0.3-0.3,0.9-0.6,1.4-0.6c1,0,1.5,0.7,1.5,1.6H87.9z"/>
			</g>
		</g>
		<g>
			<path class="st1" d="M87.9,27.6c0-0.7-0.4-1.1-1-1.1c-0.4,0-0.7,0.1-1,0.4s-0.4,0.7-0.6,1.8c-0.1,0.7-0.2,1-0.2,1.2
				c0,0.7,0.5,1,1,1s1.3-0.4,1.5-1.4l0.1-0.4h-1.2l0.1-0.5h1.8l-0.2,0.8c-0.1,0.6-0.3,1-0.7,1.4c-0.3,0.3-0.8,0.6-1.4,0.6
				c-0.8,0-1.5-0.5-1.5-1.4c0-0.3,0-0.6,0.2-1.3c0.2-1.3,0.4-1.7,0.8-2.1c0.3-0.3,0.9-0.6,1.4-0.6c1,0,1.5,0.7,1.5,1.6H87.9z"/>
		</g>
	</g>
	<g id="CIRCLE_00000047033933247772304910000012314801257507285635_">
		<g>
			<g>
				<path class="st1" d="M64.1,85.9h-0.9l-1.1-1.7l-0.6,0.6v1.1h-0.8v-5.3h0.8v3.3l1.5-1.7h0.9l-1.3,1.5L64.1,85.9z"/>
				<path class="st1" d="M67.9,84.2h-2.4c0,0.2,0,0.4,0.1,0.6s0.2,0.3,0.3,0.4c0.1,0.1,0.3,0.1,0.5,0.1s0.4,0,0.5-0.1
					s0.3-0.2,0.4-0.3l0.5,0.4c-0.2,0.2-0.4,0.4-0.6,0.4C67,85.9,66.7,86,66.4,86c-0.2,0-0.5,0-0.7-0.1s-0.4-0.2-0.5-0.3
					c-0.2-0.2-0.3-0.4-0.4-0.6s-0.1-0.5-0.1-0.9s0.1-0.7,0.2-1s0.3-0.5,0.6-0.7c0.2-0.2,0.5-0.2,0.8-0.2s0.6,0.1,0.9,0.2
					c0.2,0.2,0.4,0.4,0.6,0.6c0.1,0.3,0.2,0.6,0.2,0.9L67.9,84.2L67.9,84.2z M67.1,83.7c0-0.2,0-0.4-0.1-0.5s-0.2-0.3-0.3-0.3
					c-0.1-0.1-0.3-0.1-0.5-0.1s-0.3,0-0.5,0.1c-0.1,0.1-0.2,0.2-0.3,0.3c0,0.1-0.1,0.1-0.1,0.2s0,0.2,0,0.3H67.1z"/>
				<path class="st1" d="M71.9,82.1l-1.7,4.5c-0.1,0.2-0.2,0.4-0.3,0.5c-0.2,0.2-0.4,0.3-0.8,0.3h-0.3v-0.7H69c0.2,0,0.3,0,0.3-0.1
					s0.1-0.2,0.2-0.3l0.2-0.6l-1.3-3.6h0.8l0.9,2.7l0.9-2.7C71,82.1,71.9,82.1,71.9,82.1z"/>
			</g>
			<g>
				<path class="st1" d="M64.1,85.9h-0.9l-1.1-1.7l-0.6,0.6v1.1h-0.8v-5.3h0.8v3.3l1.5-1.7h0.9l-1.3,1.5L64.1,85.9z"/>
				<path class="st1" d="M67.9,84.2h-2.4c0,0.2,0,0.4,0.1,0.6s0.2,0.3,0.3,0.4c0.1,0.1,0.3,0.1,0.5,0.1s0.4,0,0.5-0.1
					s0.3-0.2,0.4-0.3l0.5,0.4c-0.2,0.2-0.4,0.4-0.6,0.4C67,85.9,66.7,86,66.4,86c-0.2,0-0.5,0-0.7-0.1s-0.4-0.2-0.5-0.3
					c-0.2-0.2-0.3-0.4-0.4-0.6s-0.1-0.5-0.1-0.9s0.1-0.7,0.2-1s0.3-0.5,0.6-0.7c0.2-0.2,0.5-0.2,0.8-0.2s0.6,0.1,0.9,0.2
					c0.2,0.2,0.4,0.4,0.6,0.6c0.1,0.3,0.2,0.6,0.2,0.9L67.9,84.2L67.9,84.2z M67.1,83.7c0-0.2,0-0.4-0.1-0.5s-0.2-0.3-0.3-0.3
					c-0.1-0.1-0.3-0.1-0.5-0.1s-0.3,0-0.5,0.1c-0.1,0.1-0.2,0.2-0.3,0.3c0,0.1-0.1,0.1-0.1,0.2s0,0.2,0,0.3H67.1z"/>
				<path class="st1" d="M71.9,82.1l-1.7,4.5c-0.1,0.2-0.2,0.4-0.3,0.5c-0.2,0.2-0.4,0.3-0.8,0.3h-0.3v-0.7H69c0.2,0,0.3,0,0.3-0.1
					s0.1-0.2,0.2-0.3l0.2-0.6l-1.3-3.6h0.8l0.9,2.7l0.9-2.7C71,82.1,71.9,82.1,71.9,82.1z"/>
			</g>
		</g>
	</g>
	<line class="st2" x1="0.4" y1="16.5" x2="275.2" y2="16.5"/>
	<g>
		<g>
			<g>
				<path class="st1" d="M200.8,84.8c0,0.3-0.1,0.5-0.2,0.7c-0.1,0.2-0.3,0.3-0.6,0.4c-0.2,0.1-0.5,0.1-0.8,0.1c-0.2,0-0.4,0-0.6,0
					s-0.4-0.1-0.5-0.2s-0.3-0.2-0.5-0.3l0.5-0.5c0.3,0.3,0.6,0.4,1.1,0.4c0.2,0,0.3,0,0.4-0.1c0.1,0,0.2-0.1,0.3-0.2
					s0.1-0.2,0.1-0.3c0-0.3-0.2-0.4-0.5-0.4l-0.6-0.1c-0.2,0-0.4-0.1-0.6-0.2c-0.2-0.1-0.3-0.2-0.4-0.3c-0.1-0.1-0.1-0.3-0.1-0.5
					c0-0.4,0.1-0.6,0.4-0.8c0.3-0.2,0.6-0.3,1-0.3c0.6,0,1.1,0.1,1.4,0.4l-0.5,0.5c-0.2-0.2-0.5-0.3-0.9-0.3c-0.2,0-0.4,0-0.5,0.1
					s-0.2,0.2-0.2,0.4c0,0.3,0.2,0.4,0.5,0.4l0.6,0.1c0.2,0,0.4,0.1,0.6,0.2s0.3,0.2,0.4,0.4S200.8,84.5,200.8,84.8z"/>
				<path class="st1" d="M204.9,84c0,0.2,0,0.4,0,0.6s-0.1,0.4-0.1,0.5c-0.1,0.2-0.2,0.3-0.3,0.4s-0.2,0.2-0.4,0.2
					c-0.2,0.1-0.3,0.1-0.5,0.1s-0.4,0-0.6-0.1c-0.2-0.1-0.3-0.2-0.4-0.3v1.9h-0.8V82h0.7v0.4c0.1-0.2,0.3-0.3,0.4-0.3
					c0.2-0.1,0.3-0.1,0.6-0.1c0.2,0,0.4,0,0.5,0.1s0.3,0.1,0.4,0.2c0.1,0.1,0.2,0.3,0.3,0.4c0.1,0.2,0.1,0.3,0.1,0.5
					S204.9,83.8,204.9,84z M204.2,84c0-0.3,0-0.5-0.1-0.7c0-0.2-0.1-0.3-0.2-0.4c-0.1-0.1-0.3-0.2-0.5-0.2s-0.4,0.1-0.5,0.2
					s-0.2,0.3-0.2,0.4s-0.1,0.4-0.1,0.7s0,0.5,0.1,0.7s0.1,0.3,0.2,0.4c0.1,0.1,0.3,0.2,0.5,0.2c0.3,0,0.5-0.1,0.6-0.3
					C204.1,84.7,204.2,84.4,204.2,84z"/>
				<path class="st1" d="M208.8,82.5l-0.6,0.6c-0.1-0.1-0.2-0.2-0.2-0.2c-0.1,0-0.2-0.1-0.3-0.1s-0.3,0-0.4,0.1
					c-0.1,0.1-0.2,0.2-0.3,0.3c-0.1,0.1-0.1,0.3-0.1,0.4v2.3h-0.8v-3.8h0.7v0.4c0.1-0.1,0.2-0.2,0.4-0.3s0.4-0.1,0.6-0.1
					c0.2,0,0.3,0,0.5,0.1C208.5,82.2,208.6,82.3,208.8,82.5z"/>
				<path class="st1" d="M212.6,84.2h-2.4c0,0.2,0,0.4,0.1,0.6s0.2,0.3,0.3,0.4s0.3,0.1,0.5,0.1s0.4,0,0.5-0.1s0.3-0.2,0.4-0.3
					l0.5,0.4c-0.2,0.2-0.4,0.4-0.6,0.4c-0.2,0.1-0.5,0.1-0.8,0.1c-0.2,0-0.5,0-0.7-0.1s-0.4-0.2-0.5-0.3c-0.2-0.2-0.3-0.4-0.4-0.6
					s-0.1-0.5-0.1-0.9s0.1-0.7,0.2-1c0.1-0.3,0.3-0.5,0.6-0.7s0.5-0.2,0.8-0.2s0.6,0.1,0.9,0.2s0.4,0.4,0.6,0.6
					c0.1,0.3,0.2,0.6,0.2,0.9v0.5H212.6z M211.8,83.7c0-0.2,0-0.4-0.1-0.5s-0.2-0.3-0.3-0.3c-0.1-0.1-0.3-0.1-0.5-0.1
					s-0.3,0-0.5,0.1c-0.1,0.1-0.2,0.2-0.3,0.3c0,0.1-0.1,0.1-0.1,0.2s0,0.2,0,0.3H211.8z"/>
				<path class="st1" d="M216.5,85.9h-0.7v-0.3c-0.1,0.1-0.3,0.2-0.4,0.3c-0.1,0.1-0.3,0.1-0.6,0.1c-0.2,0-0.4,0-0.6-0.1
					s-0.3-0.1-0.4-0.3c-0.2-0.2-0.3-0.5-0.3-0.8c0-0.2,0-0.4,0.1-0.6s0.2-0.3,0.4-0.4s0.4-0.1,0.7-0.1h1v-0.3c0-0.2-0.1-0.4-0.2-0.5
					s-0.3-0.2-0.6-0.2c-0.2,0-0.4,0-0.5,0.1s-0.2,0.1-0.3,0.3l-0.5-0.5c0.2-0.2,0.4-0.3,0.6-0.4s0.5-0.1,0.8-0.1
					c1,0,1.6,0.4,1.6,1.3v2.5H216.5z M215.8,84.5v-0.3h-0.9c-0.2,0-0.4,0-0.5,0.1s-0.2,0.2-0.2,0.4c0,0.4,0.2,0.5,0.7,0.5
					c0.2,0,0.3,0,0.4,0c0.1,0,0.2-0.1,0.3-0.2C215.7,85,215.8,84.8,215.8,84.5z"/>
				<path class="st1" d="M220.8,85.9H220v-0.4c-0.1,0.1-0.2,0.2-0.3,0.3c-0.1,0.1-0.2,0.1-0.3,0.1s-0.2,0-0.4,0s-0.4,0-0.5-0.1
					c-0.2-0.1-0.3-0.1-0.4-0.2c-0.1-0.1-0.2-0.3-0.3-0.4c-0.1-0.2-0.1-0.3-0.1-0.5s0-0.4,0-0.6s0-0.4,0-0.6s0.1-0.4,0.1-0.5
					c0.1-0.2,0.2-0.3,0.3-0.4s0.2-0.2,0.4-0.2c0.2-0.1,0.3-0.1,0.5-0.1s0.4,0,0.6,0.1s0.3,0.2,0.4,0.3v-1.9h0.8V85.9z M220,84
					c0-0.3,0-0.5-0.1-0.7c0-0.2-0.1-0.3-0.2-0.4c-0.1-0.1-0.3-0.2-0.5-0.2s-0.4,0.1-0.5,0.2s-0.2,0.3-0.2,0.4c0,0.2-0.1,0.4-0.1,0.7
					s0,0.5,0.1,0.7c0,0.2,0.1,0.3,0.2,0.4c0.1,0.1,0.3,0.2,0.5,0.2c0.3,0,0.5-0.1,0.6-0.3C219.9,84.7,220,84.4,220,84z"/>
			</g>
		</g>
		<g>
			<path class="st1" d="M200.8,84.8c0,0.3-0.1,0.5-0.2,0.7c-0.1,0.2-0.3,0.3-0.6,0.4c-0.2,0.1-0.5,0.1-0.8,0.1c-0.2,0-0.4,0-0.6,0
				s-0.4-0.1-0.5-0.2s-0.3-0.2-0.5-0.3l0.5-0.5c0.3,0.3,0.6,0.4,1.1,0.4c0.2,0,0.3,0,0.4-0.1c0.1,0,0.2-0.1,0.3-0.2s0.1-0.2,0.1-0.3
				c0-0.3-0.2-0.4-0.5-0.4l-0.6-0.1c-0.2,0-0.4-0.1-0.6-0.2c-0.2-0.1-0.3-0.2-0.4-0.3c-0.1-0.1-0.1-0.3-0.1-0.5
				c0-0.4,0.1-0.6,0.4-0.8c0.3-0.2,0.6-0.3,1-0.3c0.6,0,1.1,0.1,1.4,0.4l-0.5,0.5c-0.2-0.2-0.5-0.3-0.9-0.3c-0.2,0-0.4,0-0.5,0.1
				s-0.2,0.2-0.2,0.4c0,0.3,0.2,0.4,0.5,0.4l0.6,0.1c0.2,0,0.4,0.1,0.6,0.2s0.3,0.2,0.4,0.4S200.8,84.5,200.8,84.8z"/>
			<path class="st1" d="M204.9,84c0,0.2,0,0.4,0,0.6s-0.1,0.4-0.1,0.5c-0.1,0.2-0.2,0.3-0.3,0.4s-0.2,0.2-0.4,0.2
				c-0.2,0.1-0.3,0.1-0.5,0.1s-0.4,0-0.6-0.1c-0.2-0.1-0.3-0.2-0.4-0.3v1.9h-0.8V82h0.7v0.4c0.1-0.2,0.3-0.3,0.4-0.3
				c0.2-0.1,0.3-0.1,0.6-0.1c0.2,0,0.4,0,0.5,0.1s0.3,0.1,0.4,0.2c0.1,0.1,0.2,0.3,0.3,0.4c0.1,0.2,0.1,0.3,0.1,0.5
				S204.9,83.8,204.9,84z M204.2,84c0-0.3,0-0.5-0.1-0.7c0-0.2-0.1-0.3-0.2-0.4c-0.1-0.1-0.3-0.2-0.5-0.2s-0.4,0.1-0.5,0.2
				s-0.2,0.3-0.2,0.4s-0.1,0.4-0.1,0.7s0,0.5,0.1,0.7s0.1,0.3,0.2,0.4c0.1,0.1,0.3,0.2,0.5,0.2c0.3,0,0.5-0.1,0.6-0.3
				C204.1,84.7,204.2,84.4,204.2,84z"/>
			<path class="st1" d="M208.8,82.5l-0.6,0.6c-0.1-0.1-0.2-0.2-0.2-0.2c-0.1,0-0.2-0.1-0.3-0.1s-0.3,0-0.4,0.1
				c-0.1,0.1-0.2,0.2-0.3,0.3c-0.1,0.1-0.1,0.3-0.1,0.4v2.3h-0.8v-3.8h0.7v0.4c0.1-0.1,0.2-0.2,0.4-0.3s0.4-0.1,0.6-0.1
				c0.2,0,0.3,0,0.5,0.1C208.5,82.2,208.6,82.3,208.8,82.5z"/>
			<path class="st1" d="M212.6,84.2h-2.4c0,0.2,0,0.4,0.1,0.6s0.2,0.3,0.3,0.4s0.3,0.1,0.5,0.1s0.4,0,0.5-0.1s0.3-0.2,0.4-0.3
				l0.5,0.4c-0.2,0.2-0.4,0.4-0.6,0.4c-0.2,0.1-0.5,0.1-0.8,0.1c-0.2,0-0.5,0-0.7-0.1s-0.4-0.2-0.5-0.3c-0.2-0.2-0.3-0.4-0.4-0.6
				s-0.1-0.5-0.1-0.9s0.1-0.7,0.2-1c0.1-0.3,0.3-0.5,0.6-0.7s0.5-0.2,0.8-0.2s0.6,0.1,0.9,0.2s0.4,0.4,0.6,0.6
				c0.1,0.3,0.2,0.6,0.2,0.9v0.5H212.6z M211.8,83.7c0-0.2,0-0.4-0.1-0.5s-0.2-0.3-0.3-0.3c-0.1-0.1-0.3-0.1-0.5-0.1s-0.3,0-0.5,0.1
				c-0.1,0.1-0.2,0.2-0.3,0.3c0,0.1-0.1,0.1-0.1,0.2s0,0.2,0,0.3H211.8z"/>
			<path class="st1" d="M216.5,85.9h-0.7v-0.3c-0.1,0.1-0.3,0.2-0.4,0.3c-0.1,0.1-0.3,0.1-0.6,0.1c-0.2,0-0.4,0-0.6-0.1
				s-0.3-0.1-0.4-0.3c-0.2-0.2-0.3-0.5-0.3-0.8c0-0.2,0-0.4,0.1-0.6s0.2-0.3,0.4-0.4s0.4-0.1,0.7-0.1h1v-0.3c0-0.2-0.1-0.4-0.2-0.5
				s-0.3-0.2-0.6-0.2c-0.2,0-0.4,0-0.5,0.1s-0.2,0.1-0.3,0.3l-0.5-0.5c0.2-0.2,0.4-0.3,0.6-0.4s0.5-0.1,0.8-0.1c1,0,1.6,0.4,1.6,1.3
				v2.5H216.5z M215.8,84.5v-0.3h-0.9c-0.2,0-0.4,0-0.5,0.1s-0.2,0.2-0.2,0.4c0,0.4,0.2,0.5,0.7,0.5c0.2,0,0.3,0,0.4,0
				c0.1,0,0.2-0.1,0.3-0.2C215.7,85,215.8,84.8,215.8,84.5z"/>
			<path class="st1" d="M220.8,85.9H220v-0.4c-0.1,0.1-0.2,0.2-0.3,0.3c-0.1,0.1-0.2,0.1-0.3,0.1s-0.2,0-0.4,0s-0.4,0-0.5-0.1
				c-0.2-0.1-0.3-0.1-0.4-0.2c-0.1-0.1-0.2-0.3-0.3-0.4c-0.1-0.2-0.1-0.3-0.1-0.5s0-0.4,0-0.6s0-0.4,0-0.6s0.1-0.4,0.1-0.5
				c0.1-0.2,0.2-0.3,0.3-0.4s0.2-0.2,0.4-0.2c0.2-0.1,0.3-0.1,0.5-0.1s0.4,0,0.6,0.1s0.3,0.2,0.4,0.3v-1.9h0.8V85.9z M220,84
				c0-0.3,0-0.5-0.1-0.7c0-0.2-0.1-0.3-0.2-0.4c-0.1-0.1-0.3-0.2-0.5-0.2s-0.4,0.1-0.5,0.2s-0.2,0.3-0.2,0.4c0,0.2-0.1,0.4-0.1,0.7
				s0,0.5,0.1,0.7c0,0.2,0.1,0.3,0.2,0.4c0.1,0.1,0.3,0.2,0.5,0.2c0.3,0,0.5-0.1,0.6-0.3C219.9,84.7,220,84.4,220,84z"/>
		</g>
	</g>
	<g id="CIRCLE_00000121986012508458260050000013027376918008652191_">
		<g>
			<path class="st1" d="M58.6,244.8c-0.2-0.2-0.4-0.3-0.7-0.3c-0.6,0-0.9,0.4-0.9,0.8c0,0.3,0.2,0.4,0.5,0.5l0.3,0.1
				c0.6,0.1,0.8,0.4,0.8,0.9c0,0.7-0.6,1.1-1.4,1.1c-0.5,0-0.8-0.2-1.1-0.5l0.3-0.2c0.2,0.3,0.5,0.4,0.9,0.4c0.5,0,1-0.3,1-0.8
				c0-0.4-0.2-0.5-0.5-0.6l-0.3-0.1c-0.4-0.1-0.8-0.3-0.8-0.8s0.4-1.2,1.3-1.2c0.4,0,0.7,0.1,1,0.4L58.6,244.8z"/>
			<path class="st1" d="M61.4,247.9l-0.1-0.8h-1.5l-0.5,0.8h-0.4l2-3.7h0.3l0.6,3.7H61.4z M60.9,244.7l-1.1,2h1.3L60.9,244.7z"/>
			<path class="st1" d="M64.8,244.5h-1l-0.7,3.4h-0.4l0.7-3.4h-1l0.1-0.3h2.4L64.8,244.5z"/>
			<path class="st1" d="M67.8,244.5H66l-0.3,1.3h1.5l-0.1,0.3h-1.5l-0.3,1.4h1.8l-0.1,0.3h-2.2l0.7-3.7h2.2L67.8,244.5z"/>
			<path class="st1" d="M70.1,247.9h-2.2l0.7-3.7H69l-0.7,3.4h1.8L70.1,247.9z"/>
			<path class="st1" d="M73,247.9h-2.2l0.7-3.7h0.4l-0.7,3.4H73L73,247.9z"/>
			<path class="st1" d="M74.1,247.9h-0.4l0.7-3.7h0.4L74.1,247.9z"/>
			<path class="st1" d="M77.9,244.5h-1l-0.7,3.4h-0.4l0.7-3.4h-1l0.1-0.3H78L77.9,244.5z"/>
			<path class="st1" d="M80.8,244.5H79l-0.3,1.3h1.5l-0.1,0.3h-1.5l-0.3,1.4h1.8l-0.1,0.3h-2l0.7-3.7h2.2L80.8,244.5z"/>
		</g>
	</g>
	<g id="CIRCLE_00000152261967688881238020000014441802224338056884_">
		<g>
			<path class="st1" d="M51.4,228.8l-0.1-0.9h-1.6l-0.5,0.9h-0.4l2.1-3.8h0.3l0.6,3.8H51.4z M51,225.6l-1.1,2h1.4L51,225.6z"/>
		</g>
	</g>
	<g id="CIRCLE_00000172419073645147620240000013950114951573036220_">
		<g>
			<path class="st1" d="M63.5,226.9c0.3,0.1,0.4,0.4,0.4,0.7c0,0.7-0.5,1.2-1.2,1.2h-1.5L62,225h1.3c0.8,0,0.9,0.5,0.9,0.8
				C64.2,226.2,64,226.7,63.5,226.9z M62.9,227.1h-1l-0.3,1.4h1c0.5,0,0.8-0.4,0.8-0.9C63.5,227.3,63.3,227.1,62.9,227.1z
				 M63.2,225.4h-0.9l-0.3,1.3h1c0.5,0,0.8-0.4,0.8-0.8C63.8,225.7,63.7,225.4,63.2,225.4z"/>
		</g>
	</g>
	<g id="CIRCLE_00000023978514532957529050000018080082368015517833_">
		<g>
			<path class="st1" d="M75.8,226.1c0-0.5-0.3-0.8-0.7-0.8c-0.3,0-0.5,0.1-0.7,0.3s-0.3,0.5-0.4,1.3c-0.1,0.5-0.1,0.7-0.1,0.9
				c0,0.4,0.3,0.7,0.7,0.7c0.5,0,0.9-0.4,1-0.8H76c-0.2,0.7-0.8,1.1-1.4,1.1s-1.1-0.4-1.1-1c0-0.1,0-0.3,0.1-0.9
				c0.2-0.8,0.2-1.2,0.6-1.5c0.2-0.2,0.6-0.4,1-0.4c0.7,0,1.1,0.5,1.1,1.1L75.8,226.1L75.8,226.1z"/>
		</g>
	</g>
	<g id="CIRCLE_00000050622543366358088830000013327462272532606904_">
		<g>
			<path class="st1" d="M88.1,226.9c-0.2,0.9-0.3,1.3-0.6,1.6c-0.3,0.2-0.6,0.3-1,0.3h-1.2l0.8-3.8h1.2c0.5,0,1.1,0.2,1.1,1
				C88.2,226.3,88.2,226.4,88.1,226.9z M87.1,225.4h-0.8l-0.6,3.1h0.8c0.3,0,0.5-0.1,0.8-0.3c0.2-0.2,0.4-0.6,0.5-1.3
				c0.1-0.4,0.1-0.6,0.1-0.8C87.9,225.7,87.6,225.4,87.1,225.4z"/>
		</g>
	</g>
	<g id="CIRCLE_00000058579547780233147710000002167834134886853050_">
		<g>
			<path class="st1" d="M203.4,247.9H203l-0.2-3l-1.4,3h-0.3l-0.2-3.7h0.4l0.1,3l1.4-3h0.3l0.2,3l1.3-3h0.4L203.4,247.9z"/>
			<path class="st1" d="M206.9,247.9l-0.1-0.8h-1.5l-0.5,0.8h-0.4l2-3.7h0.3l0.6,3.7H206.9z M206.5,244.7l-1.1,2h1.3L206.5,244.7z"
				/>
			<path class="st1" d="M210,246.2l0.5,1.7h-0.4l-0.5-1.7h-0.9l-0.3,1.7H208l0.7-3.7h1.3c0.7,0,0.9,0.4,0.9,0.9
				C210.9,245.5,210.6,246,210,246.2z M210,244.5h-0.9l-0.3,1.4h0.9c0.6,0,0.9-0.4,0.9-0.8C210.6,244.7,210.4,244.5,210,244.5z"/>
			<path class="st1" d="M213,246.3h-1l-0.3,1.6h-0.4l0.7-3.7h1.3c0.7,0,0.9,0.4,0.9,0.9C214.3,245.7,213.8,246.3,213,246.3z
				 M213.3,244.5h-0.9l-0.3,1.5h0.9c0.5,0,0.9-0.4,0.9-0.9C213.9,244.8,213.8,244.5,213.3,244.5z"/>
		</g>
	</g>
	<g>
		<g id="CIRCLE_00000121993265809871690370000015050131007750143382_">
			<g>
				<path class="st1" d="M189,228.8h-0.4l0.7-3.3l-0.8,0.6l0.1-0.5l0.8-0.6h0.4L189,228.8z"/>
			</g>
		</g>
		<g id="CIRCLE_00000139972352963063014690000011563804607721483455_">
			<g>
				<path class="st1" d="M201.8,226.9l-1.5,1.6h1.5l-0.1,0.3h-2l0.1-0.3l1.8-1.9c0.2-0.2,0.3-0.4,0.3-0.7c0-0.4-0.2-0.5-0.5-0.5
					s-0.7,0.2-0.8,0.7h-0.4c0.1-0.7,0.6-1,1.1-1s0.9,0.3,0.9,0.9C202.3,226.3,202,226.6,201.8,226.9z"/>
			</g>
		</g>
		<g id="CIRCLE_00000044884347151228057310000015362044316633015479_">
			<g>
				<path class="st1" d="M213.6,226.9c0.3,0.1,0.4,0.3,0.4,0.7c0,0.6-0.5,1.3-1.2,1.3c-0.6,0-0.9-0.4-0.9-0.8V228h0.4v0.1
					c0,0.3,0.2,0.5,0.6,0.5c0.5,0,0.9-0.4,0.9-1c0-0.3-0.2-0.5-0.6-0.5h-0.1l0.1-0.3h0.1c0.5,0,0.8-0.4,0.8-0.9
					c0-0.3-0.2-0.5-0.5-0.5s-0.6,0.2-0.7,0.6h-0.4c0.2-0.6,0.6-0.9,1.2-0.9c0.5,0,0.8,0.3,0.8,0.8
					C214.2,226.3,214,226.7,213.6,226.9z"/>
			</g>
		</g>
		<g id="CIRCLE_00000057123091381768702520000013086263114414873526_">
			<g>
				<path class="st1" d="M226,228.2h-0.4l-0.1,0.6h-0.4l0.1-0.6h-1.4l0.1-0.3l1.8-2.8h0.4l-1.8,2.8h1l0.2-1h0.4l-0.2,1h0.5
					L226,228.2z"/>
			</g>
		</g>
	</g>
	<path class="st2" d="M249.5,51c-3.9,2.3-8.3,3.6-12.9,3.6h-5.9"/>
	<g>
		<g>
			<path class="st4" d="M214.4,359.4c-0.2,0.9-0.3,1.3-0.6,1.6c-0.3,0.2-0.6,0.3-1,0.3h-1.2l0.8-3.8h1.2c0.5,0,1.1,0.2,1.1,1
				C214.5,358.8,214.5,359,214.4,359.4z M213.4,357.9h-0.8L212,361h0.8c0.3,0,0.5-0.1,0.8-0.3c0.2-0.2,0.4-0.6,0.5-1.3
				c0.1-0.4,0.1-0.6,0.1-0.8C214.1,358.2,213.9,357.9,213.4,357.9z"/>
		</g>
		<g>
			<g>
				<path class="st1" d="M214.4,359.4c-0.2,0.9-0.3,1.3-0.6,1.6c-0.3,0.2-0.6,0.3-1,0.3h-1.2l0.8-3.8h1.2c0.5,0,1.1,0.2,1.1,1
					C214.5,358.8,214.5,359,214.4,359.4z M213.4,357.9h-0.8L212,361h0.8c0.3,0,0.5-0.1,0.8-0.3c0.2-0.2,0.4-0.6,0.5-1.3
					c0.1-0.4,0.1-0.6,0.1-0.8C214.1,358.2,213.9,357.9,213.4,357.9z"/>
			</g>
		</g>
	</g>
	<g>
		<g>
			<path class="st4" d="M176.5,358.6c0-0.5-0.3-0.8-0.7-0.8c-0.3,0-0.5,0.1-0.7,0.3c-0.2,0.2-0.3,0.5-0.4,1.3
				c-0.1,0.5-0.1,0.7-0.1,0.9c0,0.4,0.3,0.7,0.7,0.7c0.5,0,0.9-0.4,1-0.8h0.4c-0.2,0.7-0.8,1.1-1.4,1.1c-0.6,0-1.1-0.4-1.1-1
				c0-0.1,0-0.3,0.1-0.9c0.2-0.8,0.2-1.2,0.6-1.5c0.2-0.2,0.6-0.4,1-0.4c0.7,0,1.1,0.5,1.1,1.1L176.5,358.6L176.5,358.6z"/>
		</g>
		<g>
			<g>
				<path class="st1" d="M176.5,358.6c0-0.5-0.3-0.8-0.7-0.8c-0.3,0-0.5,0.1-0.7,0.3c-0.2,0.2-0.3,0.5-0.4,1.3
					c-0.1,0.5-0.1,0.7-0.1,0.9c0,0.4,0.3,0.7,0.7,0.7c0.5,0,0.9-0.4,1-0.8h0.4c-0.2,0.7-0.8,1.1-1.4,1.1c-0.6,0-1.1-0.4-1.1-1
					c0-0.1,0-0.3,0.1-0.9c0.2-0.8,0.2-1.2,0.6-1.5c0.2-0.2,0.6-0.4,1-0.4c0.7,0,1.1,0.5,1.1,1.1L176.5,358.6L176.5,358.6z"/>
			</g>
		</g>
	</g>
	<g>
		<g>
			<path class="st4" d="M138.6,359.4c0.3,0.1,0.4,0.4,0.4,0.7c0,0.7-0.5,1.2-1.2,1.2h-1.5l0.8-3.8h1.3c0.8,0,0.9,0.5,0.9,0.8
				C139.3,358.8,139.2,359.2,138.6,359.4z M138.1,359.6h-1l-0.3,1.4h1c0.5,0,0.8-0.4,0.8-0.9C138.7,359.8,138.5,359.6,138.1,359.6z
				 M138.4,357.9h-0.9l-0.3,1.3h0.9c0.5,0,0.8-0.4,0.8-0.8C139,358.2,138.8,357.9,138.4,357.9z"/>
		</g>
		<g>
			<g>
				<path class="st1" d="M138.6,359.4c0.3,0.1,0.4,0.4,0.4,0.7c0,0.7-0.5,1.2-1.2,1.2h-1.5l0.8-3.8h1.3c0.8,0,0.9,0.5,0.9,0.8
					C139.3,358.8,139.2,359.2,138.6,359.4z M138.1,359.6h-1l-0.3,1.4h1c0.5,0,0.8-0.4,0.8-0.9C138.7,359.8,138.5,359.6,138.1,359.6z
					 M138.4,357.9h-0.9l-0.3,1.3h0.9c0.5,0,0.8-0.4,0.8-0.8C139,358.2,138.8,357.9,138.4,357.9z"/>
			</g>
		</g>
	</g>
	<g>
		<g>
			<path class="st4" d="M101,361.3l-0.1-0.9h-1.6l-0.5,0.9h-0.4l2.1-3.8h0.3l0.6,3.8H101z M100.6,358.1l-1.1,2h1.4L100.6,358.1z"/>
		</g>
		<g>
			<g>
				<path class="st1" d="M101,361.3l-0.1-0.9h-1.6l-0.5,0.9h-0.4l2.1-3.8h0.3l0.6,3.8H101z M100.6,358.1l-1.1,2h1.4L100.6,358.1z"/>
			</g>
		</g>
	</g>
	<g id="CIRCLE_00000096748356103039817500000003086005156003703976_">
		<g>
			<path class="st1" d="M121.5,61.6c-0.2-0.2-0.4-0.3-0.7-0.3c-0.6,0-0.9,0.4-0.9,0.8c0,0.3,0.2,0.4,0.5,0.5l0.3,0.1
				c0.6,0.1,0.8,0.4,0.8,0.9c0,0.7-0.6,1.1-1.4,1.1c-0.5,0-0.8-0.2-1.1-0.5l0.3-0.2c0.2,0.3,0.5,0.4,0.9,0.4c0.5,0,1-0.3,1-0.8
				c0-0.4-0.2-0.5-0.5-0.6l-0.3-0.1c-0.4-0.1-0.8-0.3-0.8-0.8s0.4-1.2,1.3-1.2c0.4,0,0.7,0.1,1,0.4L121.5,61.6z"/>
			<path class="st1" d="M125,61.3h-1.8l-0.3,1.3h1.5l-0.1,0.3h-1.5l-0.3,1.4h1.8l-0.1,0.3H122l0.7-3.7h2.2L125,61.3z"/>
			<path class="st1" d="M127.3,64.7h-2.2l0.7-3.7h0.4l-0.7,3.4h1.8L127.3,64.7z"/>
			<path class="st1" d="M130.9,61.3h-1.8l-0.3,1.3h1.5l-0.1,0.3h-1.5l-0.3,1.4h1.8l-0.1,0.3H128l0.7-3.7h2.2V61.3z"/>
			<path class="st1" d="M133.4,62.1c0-0.5-0.3-0.8-0.7-0.8c-0.3,0-0.5,0.1-0.7,0.3s-0.3,0.5-0.4,1.2c-0.1,0.5-0.1,0.7-0.1,0.9
				c0,0.4,0.3,0.7,0.7,0.7c0.5,0,0.8-0.4,1-0.8h0.4c-0.2,0.7-0.8,1.1-1.4,1.1c-0.6,0-1.1-0.4-1.1-1c0-0.1,0-0.3,0.1-0.9
				c0.2-0.8,0.2-1.2,0.6-1.5c0.2-0.2,0.6-0.4,1-0.4c0.7,0,1.1,0.5,1.1,1.1L133.4,62.1L133.4,62.1z"/>
			<path class="st1" d="M136.9,61.4h-1l-0.7,3.4h-0.4l0.7-3.4h-1l0.1-0.3h2.4L136.9,61.4z"/>
		</g>
	</g>
	<g>
		<path class="st1" d="M153,311.4h-0.4l0.7-3.7h0.4L153,311.4z"/>
		<path class="st1" d="M156.8,311.4h-0.3l-1.3-3l-0.6,3h-0.4l0.7-3.7h0.3l1.3,3l0.6-3h0.4L156.8,311.4z"/>
		<path class="st1" d="M160.2,308.3c-0.2-0.2-0.4-0.3-0.7-0.3c-0.6,0-0.9,0.4-0.9,0.8c0,0.3,0.2,0.4,0.5,0.5l0.3,0.1
			c0.6,0.1,0.8,0.4,0.8,0.9c0,0.7-0.6,1.1-1.4,1.1c-0.5,0-0.8-0.2-1.1-0.5l0.3-0.2c0.2,0.3,0.5,0.4,0.9,0.4c0.5,0,1-0.3,1-0.8
			c0-0.4-0.2-0.5-0.5-0.6l-0.3-0.1c-0.4-0.1-0.8-0.3-0.8-0.8s0.4-1.2,1.3-1.2c0.4,0,0.7,0.1,1,0.4L160.2,308.3z"/>
	</g>
	<g>
		<g>
			<line class="st5" x1="228.8" y1="338.6" x2="234.6" y2="338.6"/>
			<g>
				<polygon class="st1" points="232.1,341.7 231.6,341.1 234.3,338.6 231.6,336.1 232.1,335.5 235.4,338.6 				"/>
			</g>
		</g>
	</g>
	<g>
		<g>
			<line class="st5" x1="28.8" y1="44.1" x2="34.6" y2="44.1"/>
			<g>
				<polygon class="st1" points="32.2,47.2 31.6,46.7 34.4,44.1 31.6,41.6 32.2,41.1 35.5,44.1 				"/>
			</g>
		</g>
	</g>
	<path class="st2" d="M100.2,349.9L100.2,349.9c6.2,0,11.3-5,11.3-11.3l0,0c0-6.2-5-11.3-11.3-11.3l0,0c-6.2,0-11.3,5-11.3,11.3l0,0
		C88.9,344.8,94,349.9,100.2,349.9z"/>
	<path class="st2" d="M137.8,349.9L137.8,349.9c6.2,0,11.3-5,11.3-11.3l0,0c0-6.2-5-11.3-11.3-11.3l0,0c-6.2,0-11.3,5-11.3,11.3l0,0
		C126.5,344.8,131.6,349.9,137.8,349.9z"/>
	<path class="st2" d="M175.4,349.9L175.4,349.9c6.2,0,11.3-5,11.3-11.3l0,0c0-6.2-5-11.3-11.3-11.3l0,0c-6.2,0-11.3,5-11.3,11.3l0,0
		C164.1,344.8,169.2,349.9,175.4,349.9z"/>
	<path class="st2" d="M212.9,349.9L212.9,349.9c6.2,0,11.3-5,11.3-11.3l0,0c0-6.2-5-11.3-11.3-11.3l0,0c-6.2,0-11.3,5-11.3,11.3l0,0
		C201.6,344.8,206.6,349.9,212.9,349.9z"/>
	<path class="st2" d="M250.4,349.9L250.4,349.9c6.2,0,11.3-5,11.3-11.3l0,0c0-6.2-5-11.3-11.3-11.3l0,0c-6.2,0-11.3,5-11.3,11.3l0,0
		C239.2,344.8,244.2,349.9,250.4,349.9z"/>
	<path class="st2" d="M248.8,106c-0.9,0.5-1.8,1.2-2.6,2l0,0c-2.3,2.3-3.5,5.4-3.5,8.6l0.2,6.1"/>
	<path class="st2" d="M26.9,106c0.9,0.5,1.7,1.2,2.5,1.9l0,0c2.3,2.3,3.5,5.4,3.5,8.6l-0.2,6.1"/>
	<circle class="st2" cx="209.4" cy="28.2" r="1"/>
	<circle class="st2" cx="222.6" cy="31.7" r="1"/>
	<circle class="st2" cx="232.2" cy="41.4" r="1"/>
	<circle class="st2" cx="232.2" cy="67.8" r="1"/>
	<circle class="st2" cx="222.6" cy="77.4" r="1"/>
	<circle class="st2" cx="196.2" cy="31.7" r="1"/>
	<circle class="st2" cx="186.5" cy="41.4" r="1"/>
	<circle class="st2" cx="183" cy="54.6" r="1"/>
	<circle class="st2" cx="186.5" cy="67.8" r="1"/>
	<circle class="st2" cx="196.2" cy="77.4" r="1"/>
	<circle class="st1" cx="53" cy="77.4" r="1"/>
	<circle class="st2" cx="44" cy="68.9" r="1"/>
	<circle class="st1" cx="39.9" cy="57.2" r="1"/>
	<circle class="st2" cx="41.6" cy="44.9" r="1"/>
	<circle class="st1" cx="48.7" cy="34.8" r="1"/>
	<circle class="st1" cx="59.7" cy="29" r="1"/>
	<circle class="st2" cx="72.1" cy="29" r="1"/>
	<circle class="st1" cx="83.2" cy="34.6" r="1"/>
	<circle class="st2" cx="90.4" cy="44.6" r="1"/>
	<circle class="st1" cx="92.3" cy="56.9" r="1"/>
	<circle class="st2" cx="88.3" cy="68.7" r="1"/>
	<circle class="st1" cx="79.4" cy="77.4" r="1"/>
	<path class="st2" d="M102.5,319.8c0-1.4-1.4-2.6-2.9-2.2c-0.8,0.2-1.4,0.8-1.6,1.6c-0.4,1.5,0.7,2.9,2.2,2.9
		C101.5,322.1,102.5,321.1,102.5,319.8L102.5,319.8z"/>
	<path class="st2" d="M64.2,319.8c0-1.4-1.4-2.6-2.9-2.2c-0.8,0.2-1.4,0.8-1.6,1.6c-0.4,1.5,0.7,2.9,2.2,2.9
		C63.2,322.1,64.2,321.1,64.2,319.8L64.2,319.8z"/>
	<path class="st2" d="M140.1,319.8c0-1.4-1.4-2.6-2.9-2.2c-0.8,0.2-1.4,0.8-1.6,1.6c-0.4,1.5,0.7,2.9,2.2,2.9
		C139.1,322.1,140.1,321.1,140.1,319.8L140.1,319.8z"/>
	<path class="st2" d="M177.6,319.8c0-1.4-1.4-2.6-2.9-2.2c-0.8,0.2-1.4,0.8-1.6,1.6c-0.4,1.5,0.7,2.9,2.2,2.9
		C176.6,322.1,177.6,321.1,177.6,319.8L177.6,319.8z"/>
	<path class="st2" d="M215.2,319.8c0-1.4-1.4-2.6-2.9-2.2c-0.8,0.2-1.4,0.8-1.6,1.6c-0.4,1.5,0.7,2.9,2.2,2.9
		C214.2,322.1,215.2,321.1,215.2,319.8L215.2,319.8z"/>
	<path class="st2" d="M64.9,271.7c0-1.4-1.4-2.6-2.9-2.2c-0.8,0.2-1.4,0.8-1.6,1.6c-0.4,1.5,0.7,2.9,2.2,2.9
		C63.9,274,64.9,273,64.9,271.7L64.9,271.7z"/>
	<path class="st2" d="M63.5,200.4c0-1.4-1.4-2.6-2.9-2.2c-0.8,0.2-1.4,0.8-1.6,1.6c-0.4,1.5,0.7,2.9,2.2,2.9
		C62.5,202.6,63.5,201.6,63.5,200.4L63.5,200.4z"/>
	<path class="st2" d="M49,173.2c0-1.4-1.4-2.6-2.9-2.2c-0.8,0.2-1.4,0.8-1.6,1.6c-0.4,1.5,0.7,2.9,2.2,2.9
		C48,175.4,49,174.4,49,173.2L49,173.2z"/>
	<path class="st2" d="M252.8,319.8c0-1.4-1.4-2.6-2.9-2.2c-0.8,0.2-1.4,0.8-1.6,1.6c-0.4,1.5,0.7,2.9,2.2,2.9
		C251.8,322.1,252.8,321.1,252.8,319.8L252.8,319.8z"/>
	<path class="st2" d="M254.2,170.7c1.4,0,2.6,1.4,2.2,2.9c-0.2,0.8-0.8,1.4-1.6,1.6c-1.5,0.4-2.9-0.7-2.9-2.2
		C251.9,171.8,252.9,170.7,254.2,170.7L254.2,170.7z"/>
	<g>
		<g id="CIRCLE_00000105424990244476056900000000431369292748361382_">
			<path class="st2" d="M47,236.5c0-2,1.6-3.6,3.6-3.6s3.6,1.6,3.6,3.6s-1.6,3.6-3.6,3.6S47,238.5,47,236.5L47,236.5z"/>
		</g>
		<g>
			<circle class="st2" cx="50.6" cy="236.5" r="3.5"/>
		</g>
	</g>
	<g>
		<g id="CIRCLE_00000070831812494567873590000000180647220812662427_">
			<path class="st2" d="M59,236.5c0-2,1.6-3.6,3.6-3.6s3.6,1.6,3.6,3.6s-1.6,3.6-3.6,3.6S59,238.5,59,236.5L59,236.5z"/>
		</g>
	</g>
	<g>
		<g id="CIRCLE_00000155123269348330312730000008532460793826366908_">
			<path class="st2" d="M71,236.5c0-2,1.6-3.6,3.6-3.6s3.6,1.6,3.6,3.6s-1.6,3.6-3.6,3.6S71,238.5,71,236.5L71,236.5z"/>
		</g>
	</g>
	<g>
		<g id="CIRCLE_00000086653053100969093540000013617530991531565206_">
			<path class="st2" d="M83.1,236.5c0-2,1.6-3.6,3.6-3.6s3.6,1.6,3.6,3.6s-1.6,3.6-3.6,3.6S83.1,238.5,83.1,236.5L83.1,236.5z"/>
		</g>
	</g>
	<g>
		<g id="CIRCLE_00000149354726351339805230000010325839481973294775_">
			<path class="st2" d="M228.6,236.5c0-2-1.6-3.6-3.6-3.6s-3.6,1.6-3.6,3.6s1.6,3.6,3.6,3.6S228.6,238.5,228.6,236.5L228.6,236.5z"
				/>
		</g>
		<g>
			<circle class="st2" cx="225" cy="236.5" r="3.5"/>
		</g>
	</g>
	<g>
		<g id="CIRCLE_00000057136741912094972030000002303926632332642442_">
			<path class="st2" d="M216.6,236.5c0-2-1.6-3.6-3.6-3.6s-3.6,1.6-3.6,3.6s1.6,3.6,3.6,3.6S216.6,238.5,216.6,236.5L216.6,236.5z"
				/>
		</g>
	</g>
	<g>
		<g id="CIRCLE_00000078725279697533165860000007120482532677729688_">
			<path class="st2" d="M204.6,236.5c0-2-1.6-3.6-3.6-3.6s-3.6,1.6-3.6,3.6s1.6,3.6,3.6,3.6S204.6,238.5,204.6,236.5L204.6,236.5z"
				/>
		</g>
	</g>
	<g>
		<g id="CIRCLE_00000013881454615887176030000008145886908754675886_">
			<path class="st2" d="M192.5,236.5c0-2-1.6-3.6-3.6-3.6s-3.6,1.6-3.6,3.6s1.6,3.6,3.6,3.6S192.5,238.5,192.5,236.5L192.5,236.5z"
				/>
		</g>
	</g>
	<path class="st2" d="M64,92.2c0-1.4,1.4-2.6,2.9-2.2c0.8,0.2,1.4,0.8,1.6,1.6c0.4,1.5-0.7,2.9-2.2,2.9C65,94.5,64,93.4,64,92.2
		L64,92.2z"/>
	<path class="st2" d="M211.6,92.2c0-1.4-1.4-2.6-2.9-2.2c-0.8,0.2-1.4,0.8-1.6,1.6c-0.4,1.5,0.7,2.9,2.2,2.9
		C210.6,94.5,211.6,93.4,211.6,92.2L211.6,92.2z"/>
	<g id="CIRCLE_00000048476396013903638670000013254593055433607571_">
		<path class="st2" d="M38.6,338.6c0-7.5-6.1-13.5-13.5-13.5s-13.5,6.1-13.5,13.5s6.1,13.5,13.5,13.5S38.6,346.1,38.6,338.6
			L38.6,338.6z"/>
	</g>
	<g id="CIRCLE_00000049200786764202732280000013398927465938502023_">
		<path class="st2" d="M38.8,290.5c0-7.5-6.1-13.5-13.5-13.5s-13.5,6.1-13.5,13.5s6,13.5,13.5,13.5S38.8,298,38.8,290.5L38.8,290.5z
			"/>
	</g>
	<g id="CIRCLE_00000123429112881490077880000003485561453963454877_">
		<path class="st2" d="M38.6,236.5c0-7.5-6.1-13.5-13.5-13.5s-13.5,6.1-13.5,13.5c0,7.5,6.1,13.5,13.5,13.5S38.6,244,38.6,236.5
			L38.6,236.5z"/>
	</g>
	<g id="CIRCLE_00000124847744254200337950000015339191404006140060_">
		<path class="st2" d="M237,236.5c0-7.5,6.1-13.5,13.5-13.5c7.5,0,13.5,6.1,13.5,13.5c0,7.5-6.1,13.5-13.5,13.5S237,244,237,236.5
			L237,236.5z"/>
	</g>
	<g>
		<path class="st2" d="M148.8,60c-1.4,0-2.6,1.4-2.2,2.9c0.2,0.8,0.8,1.4,1.6,1.6c1.5,0.4,2.9-0.7,2.9-2.2C151,61.1,150,60,148.8,60
			L148.8,60z"/>
		<path class="st2" d="M148.8,50.1c-1.4,0-2.6,1.4-2.2,2.9c0.2,0.8,0.8,1.4,1.6,1.6c1.5,0.4,2.9-0.7,2.9-2.2
			C151,51.1,150,50.1,148.8,50.1L148.8,50.1z"/>
		<path class="st2" d="M148.8,40.2c-1.4,0-2.6,1.4-2.2,2.9c0.2,0.8,0.8,1.4,1.6,1.6c1.5,0.4,2.9-0.7,2.9-2.2
			C151,41.2,150,40.2,148.8,40.2L148.8,40.2z"/>
		<path class="st2" d="M148.8,30.3c-1.4,0-2.6,1.4-2.2,2.9c0.2,0.8,0.8,1.4,1.6,1.6c1.5,0.4,2.9-0.7,2.9-2.2
			C151,31.3,150,30.3,148.8,30.3L148.8,30.3z"/>
		<g>
			<path class="st2" d="M151,52.4c0-1.4-1.4-2.6-2.9-2.2c-0.8,0.2-1.4,0.8-1.6,1.6c-0.4,1.5,0.7,2.9,2.2,2.9
				C150,54.6,151,53.6,151,52.4L151,52.4z"/>
		</g>
	</g>
	<g>
		<path class="st2" d="M158.6,60c-1.4,0-2.6,1.4-2.2,2.9c0.2,0.8,0.8,1.4,1.6,1.6c1.5,0.4,2.9-0.7,2.9-2.2
			C160.9,61.1,159.9,60,158.6,60L158.6,60z"/>
		<path class="st2" d="M158.6,50.1c-1.4,0-2.6,1.4-2.2,2.9c0.2,0.8,0.8,1.4,1.6,1.6c1.5,0.4,2.9-0.7,2.9-2.2
			C160.9,51.1,159.9,50.1,158.6,50.1L158.6,50.1z"/>
		<path class="st2" d="M158.6,40.2c-1.4,0-2.6,1.4-2.2,2.9c0.2,0.8,0.8,1.4,1.6,1.6c1.5,0.4,2.9-0.7,2.9-2.2
			C160.9,41.2,159.9,40.2,158.6,40.2L158.6,40.2z"/>
		<path class="st2" d="M158.6,30.3c-1.4,0-2.6,1.4-2.2,2.9c0.2,0.8,0.8,1.4,1.6,1.6c1.5,0.4,2.9-0.7,2.9-2.2
			C160.9,31.3,159.9,30.3,158.6,30.3L158.6,30.3z"/>
	</g>
	<g id="CIRCLE_00000047054695680901347750000003450089105300312763_">
		<path class="st2" d="M141.3,43.8c0-7.5-6.1-13.5-13.5-13.5c-7.5,0-13.5,6.1-13.5,13.5s6.1,13.5,13.5,13.5
			C135.2,57.3,141.3,51.3,141.3,43.8L141.3,43.8z"/>
	</g>
	<g>
		<g>
			<g id="CIRCLE_00000168083573099977318460000006050408407171439791_">
				<path class="st2" d="M111.2,338.6c0,6.1-4.9,11-11,11s-11-4.9-11-11s4.9-11,11-11S111.2,332.5,111.2,338.6L111.2,338.6z"/>
			</g>
			<g id="CIRCLE_00000030484239934213313850000008987354985535731600_">
				<path class="st2" d="M105,338.6c0,2.7-2.2,4.8-4.8,4.8s-4.8-2.2-4.8-4.8s2.2-4.8,4.8-4.8S105,335.9,105,338.6L105,338.6z"/>
			</g>
		</g>
	</g>
	<g>
		<g>
			<g id="CIRCLE_00000065788025067666698090000010449957835493293234_">
				<path class="st2" d="M148.8,338.6c0,6.1-4.9,11-11,11s-11-4.9-11-11s4.9-11,11-11S148.8,332.5,148.8,338.6L148.8,338.6z"/>
			</g>
			<g id="CIRCLE_00000134947428389805623750000012369367840482322100_">
				<path class="st2" d="M142.6,338.6c0,2.7-2.2,4.8-4.8,4.8s-4.8-2.2-4.8-4.8s2.2-4.8,4.8-4.8S142.6,335.9,142.6,338.6L142.6,338.6
					z"/>
			</g>
		</g>
	</g>
	<g>
		<g>
			<g id="CIRCLE_00000182502157049889847700000001895943212592488366_">
				<path class="st2" d="M186.4,338.6c0,6.1-4.9,11-11,11s-11-4.9-11-11s4.9-11,11-11S186.4,332.5,186.4,338.6L186.4,338.6z"/>
			</g>
			<g id="CIRCLE_00000124152786714060935780000000287273714330674359_">
				<path class="st2" d="M180.2,338.6c0,2.7-2.2,4.8-4.8,4.8c-2.7,0-4.8-2.2-4.8-4.8s2.2-4.8,4.8-4.8
					C178,333.8,180.2,335.9,180.2,338.6L180.2,338.6z"/>
			</g>
		</g>
	</g>
	<g>
		<g>
			<g id="CIRCLE_00000034784133108496110400000014427413100193863820_">
				<path class="st2" d="M223.8,338.6c0,6.1-4.9,11-11,11s-11-4.9-11-11s4.9-11,11-11S223.8,332.5,223.8,338.6L223.8,338.6z"/>
			</g>
			<g id="CIRCLE_00000083088402355448380350000000987539480935613604_">
				<path class="st2" d="M217.7,338.6c0,2.7-2.2,4.8-4.8,4.8s-4.8-2.2-4.8-4.8s2.2-4.8,4.8-4.8S217.7,335.9,217.7,338.6L217.7,338.6
					z"/>
			</g>
		</g>
	</g>
	<g>
		<g>
			<g id="CIRCLE_00000145030790734629368440000018446735699797611949_">
				<path class="st2" d="M148.8,290.5c0,6.1-4.9,11-11,11s-11-4.9-11-11s4.9-11,11-11S148.8,284.5,148.8,290.5L148.8,290.5z"/>
			</g>
			<g id="CIRCLE_00000131362815462788791880000002710402820758457766_">
				<path class="st2" d="M142.6,290.5c0,2.7-2.2,4.8-4.8,4.8s-4.8-2.2-4.8-4.8s2.2-4.8,4.8-4.8S142.6,287.9,142.6,290.5L142.6,290.5
					z"/>
			</g>
		</g>
	</g>
	<g>
		<g>
			<g id="CIRCLE_00000132084616599111734430000014435904004142621835_">
				<path class="st2" d="M186.4,290.5c0,6.1-4.9,11-11,11s-11-4.9-11-11s4.9-11,11-11S186.4,284.5,186.4,290.5L186.4,290.5z"/>
			</g>
			<g id="CIRCLE_00000176023598598436013140000017648090398269851296_">
				<path class="st2" d="M180.2,290.5c0,2.7-2.2,4.8-4.8,4.8c-2.7,0-4.8-2.2-4.8-4.8s2.2-4.8,4.8-4.8S180.2,287.9,180.2,290.5
					L180.2,290.5z"/>
			</g>
		</g>
	</g>
	<g>
		<g>
			<g id="CIRCLE_00000142153884610747861220000005726441884295316124_">
				<path class="st2" d="M223.9,290.5c0,6.1-4.9,11-11,11s-11-4.9-11-11s4.9-11,11-11S223.9,284.5,223.9,290.5L223.9,290.5z"/>
			</g>
			<g id="CIRCLE_00000178191375728064645630000014301681692883372967_">
				<path class="st2" d="M217.8,290.5c0,2.7-2.2,4.8-4.8,4.8c-2.7,0-4.8-2.2-4.8-4.8s2.2-4.8,4.8-4.8S217.8,287.9,217.8,290.5
					L217.8,290.5z"/>
			</g>
		</g>
	</g>
	<g>
		<g>
			<g id="CIRCLE_00000085949009348557580420000011165514314949630127_">
				<path class="st2" d="M111.2,290.5c0,6.1-4.9,11-11,11s-11-4.9-11-11s4.9-11,11-11S111.2,284.5,111.2,290.5L111.2,290.5z"/>
			</g>
			<g id="CIRCLE_00000141444667329504837510000008237511819281918606_">
				<path class="st2" d="M105,290.5c0,2.7-2.2,4.8-4.8,4.8s-4.8-2.2-4.8-4.8s2.2-4.8,4.8-4.8S105,287.9,105,290.5L105,290.5z"/>
			</g>
		</g>
	</g>
	<g>
		<g>
			<g id="CIRCLE_00000155146818710047712310000002797964918815886234_">
				<path class="st2" d="M73.6,290.5c0,6.1-4.9,11-11,11s-11-4.9-11-11s4.9-11,11-11S73.6,284.5,73.6,290.5L73.6,290.5z"/>
			</g>
			<g id="CIRCLE_00000000186961185236290820000010705433500992739770_">
				<path class="st2" d="M67.5,290.5c0,2.7-2.2,4.8-4.8,4.8s-4.8-2.2-4.8-4.8s2.2-4.8,4.8-4.8C65.3,285.7,67.5,287.9,67.5,290.5
					L67.5,290.5z"/>
			</g>
		</g>
	</g>
	<g>
		<g>
			<g id="CIRCLE_00000033361885430242760690000001809899719704213180_">
				<path class="st2" d="M73,338.6c0,6.1-4.9,11-11,11s-11-4.9-11-11s4.9-11,11-11S73,332.5,73,338.6L73,338.6z"/>
			</g>
			<g id="CIRCLE_00000176037490832761496330000008213492359805982871_">
				<path class="st2" d="M66.8,338.6c0,2.7-2.2,4.8-4.8,4.8c-2.7,0-4.8-2.2-4.8-4.8s2.2-4.8,4.8-4.8
					C64.7,333.8,66.8,335.9,66.8,338.6L66.8,338.6z"/>
			</g>
		</g>
	</g>
	<g>
		<g>
			<g id="CIRCLE_00000160897239834887349700000005174335565275442098_">
				<path class="st2" d="M261.4,338.6c0,6.1-4.9,11-11,11s-11-4.9-11-11s4.9-11,11-11S261.4,332.5,261.4,338.6L261.4,338.6z"/>
			</g>
			<g id="CIRCLE_00000000210309865676907120000011691049822909763233_">
				<path class="st2" d="M255.2,338.6c0,2.7-2.2,4.8-4.8,4.8s-4.8-2.2-4.8-4.8s2.2-4.8,4.8-4.8S255.2,335.9,255.2,338.6L255.2,338.6
					z"/>
			</g>
		</g>
	</g>
	<g>
		<g>
			<g id="CIRCLE_00000021828049348966189760000002253291871641684637_">
				<path class="st2" d="M261.5,290.5c0,6.1-4.9,11-11,11s-11-4.9-11-11s4.9-11,11-11S261.5,284.5,261.5,290.5L261.5,290.5z"/>
			</g>
			<g id="CIRCLE_00000116225068896180248290000000278281723372011419_">
				<path class="st2" d="M255.3,290.5c0,2.7-2.2,4.8-4.8,4.8c-2.7,0-4.8-2.2-4.8-4.8s2.2-4.8,4.8-4.8
					C253.2,285.7,255.3,287.9,255.3,290.5L255.3,290.5z"/>
			</g>
		</g>
	</g>
	<g>
		<g id="CIRCLE_00000088811952994877952780000005835717589325908644_">
			<path class="st2" d="M268.8,99.6c0,6.1-4.9,11-11,11s-11-4.9-11-11s4.9-11,11-11C263.9,88.7,268.8,93.6,268.8,99.6L268.8,99.6z"
				/>
		</g>
		<g id="CIRCLE_00000005233695886048785090000011102578178952908213_">
			<path class="st2" d="M262.6,99.6c0,2.7-2.2,4.8-4.8,4.8c-2.7,0-4.8-2.2-4.8-4.8s2.2-4.8,4.8-4.8C260.5,94.8,262.6,97,262.6,99.6
				L262.6,99.6z"/>
		</g>
	</g>
	<g>
		<g id="CIRCLE_00000163790943197885290310000011837618492768746371_">
			<path class="st2" d="M6.8,99.6c0,6.1,4.9,11,11,11s11-4.9,11-11s-4.9-11-11-11S6.8,93.6,6.8,99.6L6.8,99.6z"/>
		</g>
		<g id="CIRCLE_00000132054293408009656930000017816027860094309045_">
			<path class="st2" d="M13,99.6c0,2.7,2.2,4.8,4.8,4.8s4.8-2.2,4.8-4.8s-2.2-4.8-4.8-4.8S13,97,13,99.6L13,99.6z"/>
		</g>
	</g>
	<g>
		<g id="CIRCLE_00000040554243723172033260000013733379372759110040_">
			<path class="st2" d="M14.3,199.9c0,6.1,4.9,11,11,11s11-4.9,11-11s-4.9-11-11-11S14.3,193.8,14.3,199.9L14.3,199.9z"/>
		</g>
		<g id="CIRCLE_00000128475039057407312090000015455180665082922386_">
			<path class="st2" d="M20.5,199.9c0,2.7,2.2,4.8,4.8,4.8s4.8-2.2,4.8-4.8c0-2.7-2.2-4.8-4.8-4.8S20.5,197.2,20.5,199.9L20.5,199.9
				z"/>
		</g>
	</g>
	<g>
		<g id="CIRCLE_00000127020749537192142970000011062682508978959764_">
			<path class="st2" d="M261.3,199.9c0,6.1-4.9,11-11,11s-11-4.9-11-11s4.9-11,11-11S261.3,193.8,261.3,199.9L261.3,199.9z"/>
		</g>
		<g id="CIRCLE_00000168090630597538559360000006300112415471995070_">
			<path class="st2" d="M255.2,199.9c0,2.7-2.2,4.8-4.8,4.8c-2.7,0-4.8-2.2-4.8-4.8c0-2.7,2.2-4.8,4.8-4.8
				C253,195.1,255.2,197.2,255.2,199.9L255.2,199.9z"/>
		</g>
	</g>
	<g>
		<g>
			<g id="CIRCLE_00000008126116217784244560000007591148683156480157_">
				<path class="st2" d="M268.8,43.8c0,6.1-4.9,11-11,11s-11-4.9-11-11s4.9-11,11-11C263.9,32.9,268.8,37.8,268.8,43.8L268.8,43.8z"
					/>
			</g>
			<g id="CIRCLE_00000047740406774169215900000012581597076690547331_">
				<path class="st2" d="M262.6,43.8c0,2.7-2.2,4.8-4.8,4.8c-2.7,0-4.8-2.2-4.8-4.8c0-2.7,2.2-4.8,4.8-4.8
					C260.5,39,262.6,41.2,262.6,43.8L262.6,43.8z"/>
			</g>
		</g>
	</g>
	<g>
		<g>
			<g id="CIRCLE_00000137109800245272373680000013480533219061922204_">
				<path class="st2" d="M6.8,43.8c0,6.1,4.9,11,11,11s11-4.9,11-11s-4.9-11-11-11S6.8,37.8,6.8,43.8L6.8,43.8z"/>
			</g>
			<g id="CIRCLE_00000160882309235981292670000011566529719906647999_">
				<path class="st2" d="M13,43.8c0,2.7,2.2,4.8,4.8,4.8s4.8-2.2,4.8-4.8c0-2.7-2.2-4.8-4.8-4.8S13,41.2,13,43.8L13,43.8z"/>
			</g>
		</g>
	</g>
	<circle class="st2" cx="66" cy="54.6" r="21.3"/>
	<circle class="st2" cx="209.4" cy="54.6" r="21.3"/>
	<circle class="st2" cx="242.8" cy="143.9" r="21.3"/>
	<circle class="st2" cx="32.9" cy="143.9" r="21.3"/>
	<g>
		<g>
			<g>
				<path class="st2" d="M137.8,81.5c-39.1,0-70.9,31.8-70.9,70.9s31.8,70.9,70.9,70.9s70.9-31.8,70.9-70.9S176.9,81.5,137.8,81.5z"
					/>
				<g>
					<path class="st2" d="M168.2,186.1c-7.7,6.9-17.8,11.3-28.9,11.6l-0.8,0.6c-5.7,4-13.4,6.3-21.6,6.3c-11.1,0-23-3.9-34.3-11.2
						c9.5,12.7,23.2,22,39.1,25.9c12.9-1.9,24.2-6.4,32.6-13.1C161.5,200.6,166.4,193.4,168.2,186.1z"/>
					<path class="st2" d="M135.4,197.7c-11-0.6-21-5.1-28.6-12.2l-1.1-0.1c-7.6-1.3-15.2-5.8-21.4-12.6c-7-7.7-12.1-18.3-14.7-30.5
						c-0.5,3.3-0.8,6.7-0.8,10.1c0,13.1,3.7,25.4,10.1,35.9c10.5,7.8,21.6,12.6,32.3,13.8C120.5,203.2,129,201.6,135.4,197.7z"/>
					<path class="st2" d="M171.5,122.1c6.9,7.7,11.3,17.8,11.6,28.9l0.6,0.8c4.5,6.3,6.7,14.8,6.2,24.1
						c-0.5,10.4-4.4,21.4-11.2,31.8c12.7-9.5,22-23.2,25.9-39.1c-1.9-12.9-6.4-24.2-13-32.6C186,128.8,178.9,123.9,171.5,122.1z"/>
					<path class="st2" d="M183.2,154.8c-0.6,11-5.1,21-12.2,28.6l-0.1,1.1c-1.3,7.6-5.8,15.2-12.6,21.4c-7.7,7-18.3,12.1-30.4,14.6
						c3.3,0.5,6.6,0.7,10.1,0.7c13.2,0,25.5-3.7,35.9-10.1c7.8-10.5,12.6-21.6,13.8-32.3C188.6,169.8,187,161.3,183.2,154.8z"/>
					<path class="st2" d="M107.5,118.7c7.7-6.9,17.8-11.3,28.9-11.6l0.8-0.6c6.3-4.5,14.8-6.7,24.1-6.2c10.4,0.5,21.4,4.4,31.8,11.1
						c-9.5-12.7-23.2-22-39.1-25.9c-12.9,1.9-24.2,6.4-32.6,13.1C114.2,104.3,109.3,111.4,107.5,118.7z"/>
					<path class="st2" d="M92.5,150c0.6-11,5.1-21,12.2-28.6l0.1-1.1c1.3-7.6,5.8-15.2,12.6-21.4c7.7-7,18.3-12.1,30.4-14.6
						c-3.3-0.5-6.7-0.7-10.1-0.7c-13.1,0-25.4,3.7-35.8,10.1C94.1,104.2,89.3,115.3,88,126C87.1,135,88.6,143.5,92.5,150z"/>
					<path class="st2" d="M84,168.9c5.7,7.2,12.8,12.1,20.1,13.9c-6.9-7.7-11.3-17.8-11.6-28.9l-0.6-0.8c-4.5-6.3-6.7-14.8-6.2-24.1
						c0.5-10.4,4.4-21.4,11.2-31.9c-12.7,9.4-22.1,23.2-25.9,39.1l0,0C72.8,149.2,77.3,160.5,84,168.9z"/>
					<path class="st2" d="M196.5,116.5c-10.4-7.8-21.6-12.6-32.3-13.8c-9.1-1-17.5,0.5-24,4.4c11,0.6,21,5.1,28.6,12.2l1.1,0.1
						c7.6,1.3,15.2,5.8,21.4,12.6c7,7.7,12,18.2,14.6,30.4c0.5-3.3,0.7-6.6,0.7-10C206.6,139.3,202.9,127,196.5,116.5z"/>
				</g>
				<path class="st2" d="M112.2,207.2c-3.4-0.3-6.9-0.9-10.4-1.8c-0.1,0-0.3,0-0.3,0.2c0,0.1,0,0.3,0.2,0.3
					c3.5,0.9,7.1,1.5,10.5,1.8l0,0c0.1,0,0.3-0.1,0.3-0.2C112.5,207.3,112.3,207.2,112.2,207.2z"/>
				<path class="st2" d="M115.7,207.9c0.5,0,1.1,0,1.6,0c3.5,0,7-0.3,10.3-1c0.1,0,0.2-0.2,0.2-0.3s-0.2-0.2-0.3-0.2
					c-3.7,0.8-7.6,1.1-11.7,1c-0.1,0-0.3,0.1-0.3,0.3C115.5,207.8,115.6,207.9,115.7,207.9z"/>
				<path class="st2" d="M131,206L131,206c3.6-1.1,6.9-2.5,9.8-4.3c0.1-0.1,0.2-0.2,0.1-0.4c-0.1-0.1-0.2-0.2-0.4-0.1
					c-2.9,1.8-6.1,3.2-9.6,4.3c-0.1,0-0.2,0.2-0.2,0.3C130.8,206,130.9,206,131,206z"/>
				<path class="st2" d="M123.4,211.1c-3.4,0.4-6.9,0.4-10.6,0.2c-0.2,0-0.3,0.1-0.3,0.2c0,0.1,0.1,0.3,0.2,0.3
					c1.3,0.1,2.6,0.1,3.9,0.1c2.3,0,4.5-0.1,6.7-0.3c0.1,0,0.3-0.1,0.2-0.3C123.6,211.2,123.5,211.1,123.4,211.1z"/>
				<path class="st2" d="M138.2,207.4c-3.5,1.5-7.3,2.6-11.3,3.3c-0.1,0-0.2,0.2-0.2,0.3s0.1,0.2,0.3,0.2l0,0
					c4-0.7,7.9-1.8,11.4-3.3c0.1-0.1,0.2-0.2,0.1-0.3C138.5,207.4,138.3,207.3,138.2,207.4z"/>
				<path class="st2" d="M150,199.8c-2.5,2.3-5.4,4.4-8.6,6.1c-0.1,0.1-0.2,0.2-0.1,0.4c0,0.1,0.1,0.1,0.2,0.1h0.1
					c3.3-1.7,6.2-3.8,8.7-6.1c0.1-0.1,0.1-0.3,0-0.4C150.3,199.7,150.1,199.7,150,199.8z"/>
				<path class="st2" d="M135.1,212.8c-3.2,1-6.7,1.8-10.3,2.3c-0.1,0-0.2,0.2-0.2,0.3s0.1,0.2,0.3,0.2l0,0
					c3.6-0.5,7.1-1.3,10.4-2.3c0.1,0,0.2-0.2,0.2-0.3C135.4,212.8,135.2,212.8,135.1,212.8z"/>
				<path class="st2" d="M148.9,206.2c-3.1,2.1-6.7,4-10.5,5.4c-0.1,0.1-0.2,0.2-0.2,0.3s0.1,0.2,0.2,0.2h0.1
					c3.8-1.5,7.4-3.3,10.6-5.5c0.1-0.1,0.2-0.2,0.1-0.4C149.2,206.2,149,206.1,148.9,206.2z"/>
				<path class="st2" d="M159.4,196.8c0.1-0.1,0.1-0.3-0.1-0.4c-0.1-0.1-0.3-0.1-0.4,0.1c-2,2.8-4.4,5.3-7.2,7.6
					c-0.1,0.1-0.1,0.3,0,0.4c0.1,0.1,0.1,0.1,0.2,0.1c0.1,0,0.1,0,0.2-0.1C155,202.2,157.4,199.6,159.4,196.8z"/>
				<path class="st2" d="M158.4,209.2c-2.6,2.2-5.5,4.2-8.6,6.1c-0.1,0.1-0.2,0.2-0.1,0.4c0,0.1,0.1,0.1,0.2,0.1h0.1
					c3.1-1.9,6.1-3.9,8.7-6.1c0.1-0.1,0.1-0.3,0-0.4C158.7,209.2,158.5,209.1,158.4,209.2z"/>
				<path class="st2" d="M169.1,198.2c0.1-0.1,0-0.3-0.1-0.4c-0.1-0.1-0.3,0-0.4,0.1c-2.1,3.2-4.6,6.2-7.6,9c-0.1,0.1-0.1,0.3,0,0.4
					c0.1,0.1,0.1,0.1,0.2,0.1c0.1,0,0.1,0,0.2-0.1C164.4,204.5,167,201.4,169.1,198.2z"/>
				<path class="st2" d="M174.6,184.8c-0.1,0-0.3,0.1-0.3,0.2c-0.8,3.3-2,6.6-3.8,9.8c-0.1,0.1,0,0.3,0.1,0.4h0.1
					c0.1,0,0.2-0.1,0.2-0.1c1.8-3.2,3.1-6.6,3.8-9.9C174.8,185,174.7,184.9,174.6,184.8z"/>
				<path class="st2" d="M169.1,204.1c-2.1,2.6-4.6,5.2-7.3,7.6c-0.1,0.1-0.1,0.3,0,0.4c0.1,0.1,0.1,0.1,0.2,0.1
					c0.1,0,0.1,0,0.2-0.1c2.7-2.4,5.2-5,7.4-7.7c0.1-0.1,0.1-0.3,0-0.4C169.4,204,169.2,204,169.1,204.1z"/>
				<path class="st2" d="M177.3,190.9c-0.1-0.1-0.3,0-0.3,0.1c-1.4,3.5-3.3,7-5.7,10.3c-0.1,0.1-0.1,0.3,0.1,0.4c0,0,0.1,0,0.2,0
					c0.1,0,0.2,0,0.2-0.1c2.4-3.3,4.3-6.9,5.7-10.4C177.5,191.1,177.4,190.9,177.3,190.9z"/>
				<path class="st2" d="M178.3,188C178.3,188,178.4,188,178.3,188c0.2,0,0.3-0.1,0.3-0.2c1.1-3.5,1.7-7.1,1.8-10.5
					c0-0.1-0.1-0.3-0.3-0.3s-0.3,0.1-0.3,0.3c-0.1,3.4-0.7,6.9-1.8,10.3C178.1,187.8,178.2,187.9,178.3,188z"/>
				<path class="st2" d="M178.6,197c-1.6,3-3.5,6-5.7,8.9c-0.1,0.1-0.1,0.3,0.1,0.4c0,0,0.1,0.1,0.2,0.1c0.1,0,0.2,0,0.2-0.1
					c2.2-2.9,4.1-5.9,5.7-9c0.1-0.1,0-0.3-0.1-0.4C178.8,196.9,178.7,196.9,178.6,197z"/>
				<path class="st2" d="M184,182.4c-0.1,0-0.3,0.1-0.3,0.2c-0.7,3.7-1.9,7.5-3.6,11.2c-0.1,0.1,0,0.3,0.1,0.4h0.1
					c0.1,0,0.2-0.1,0.2-0.2c1.7-3.7,2.9-7.6,3.6-11.3C184.3,182.6,184.2,182.4,184,182.4z"/>
				<path class="st2" d="M184.2,168.3c-0.1,0-0.2,0.2-0.2,0.3c0.6,3.3,0.7,6.9,0.3,10.5c0,0.1,0.1,0.3,0.2,0.3l0,0
					c0.1,0,0.2-0.1,0.3-0.2c0.4-3.7,0.3-7.3-0.3-10.6C184.5,168.4,184.3,168.3,184.2,168.3z"/>
				<path class="st2" d="M192.9,177.8c-0.2,0-0.3,0.1-0.3,0.2c-0.3,3.4-0.9,6.9-1.8,10.4c0,0.1,0,0.3,0.2,0.3c0,0,0,0,0.1,0
					s0.2-0.1,0.3-0.2c0.9-3.5,1.5-7.1,1.8-10.5C193.1,177.9,193,177.8,192.9,177.8z"/>
				<path class="st2" d="M192,162.4c-0.1,0-0.2,0.2-0.2,0.3c0.7,3.2,1,6.7,1,10.2c0,0.5,0,1,0,1.6c0,0.1,0.1,0.3,0.3,0.3l0,0
					c0.1,0,0.3-0.1,0.3-0.3c0-0.5,0-1.1,0-1.6c0-3.5-0.3-7-1-10.3C192.3,162.5,192.1,162.4,192,162.4z"/>
				<path class="st2" d="M191.2,159.5L191.2,159.5c0.2-0.1,0.3-0.2,0.3-0.3c-1-3.5-2.5-6.8-4.3-9.7c-0.1-0.1-0.2-0.2-0.4-0.1
					c-0.1,0.1-0.2,0.2-0.1,0.4c1.8,2.9,3.2,6.1,4.3,9.6C190.9,159.4,191.1,159.5,191.2,159.5z"/>
				<path class="st2" d="M196.7,166.6c-0.1,0-0.3,0.1-0.2,0.3c0.4,3.4,0.4,6.9,0.2,10.6c0,0.1,0.1,0.3,0.2,0.3l0,0
					c0.1,0,0.3-0.1,0.3-0.3c0.2-3.6,0.1-7.2-0.2-10.6C197,166.6,196.9,166.6,196.7,166.6z"/>
				<path class="st2" d="M193.2,151.8c-0.1-0.1-0.2-0.2-0.3-0.1c-0.1,0.1-0.2,0.2-0.1,0.3c1.5,3.5,2.6,7.3,3.3,11.3
					c0,0.1,0.1,0.2,0.3,0.2l0,0c0.1,0,0.2-0.2,0.2-0.3C195.9,159.2,194.8,155.4,193.2,151.8z"/>
				<path class="st2" d="M191.5,149h0.1c0.1-0.1,0.2-0.2,0.1-0.4c-1.7-3.3-3.8-6.2-6.1-8.7c-0.1-0.1-0.3-0.1-0.4,0
					c-0.1,0.1-0.1,0.3,0,0.4c2.3,2.5,4.4,5.4,6.1,8.6C191.3,148.9,191.4,149,191.5,149z"/>
				<path class="st2" d="M200.7,165.7C200.8,165.7,200.8,165.7,200.7,165.7c0.2,0,0.3-0.2,0.3-0.3c-0.5-3.6-1.3-7.1-2.3-10.4
					c0-0.1-0.2-0.2-0.3-0.2s-0.2,0.2-0.2,0.3c1,3.2,1.8,6.7,2.3,10.3C200.5,165.6,200.6,165.7,200.7,165.7z"/>
				<path class="st2" d="M191.6,141.3c2.1,3.1,4,6.7,5.4,10.5c0,0.1,0.1,0.2,0.2,0.2h0.1c0.1-0.1,0.2-0.2,0.2-0.3
					c-1.5-3.8-3.3-7.4-5.5-10.6c-0.1-0.1-0.2-0.2-0.4-0.1C191.6,141,191.5,141.2,191.6,141.3z"/>
				<path class="st2" d="M189.5,138.5c0.1,0.1,0.1,0.1,0.2,0.1c0.1,0,0.1,0,0.2-0.1c0.1-0.1,0.1-0.3,0-0.4c-2.3-2.9-4.9-5.3-7.7-7.3
					c-0.1-0.1-0.3-0.1-0.4,0.1c-0.1,0.1-0.1,0.3,0.1,0.4C184.7,133.2,187.2,135.6,189.5,138.5z"/>
				<path class="st2" d="M195,131.5c-0.1-0.1-0.3-0.1-0.4,0c-0.1,0.1-0.1,0.3,0,0.4c2.2,2.6,4.2,5.5,6.1,8.6c0,0.1,0.1,0.1,0.2,0.1
					h0.1c0.1-0.1,0.2-0.2,0.1-0.4C199.3,137,197.2,134.1,195,131.5z"/>
				<path class="st2" d="M183.6,121.1c-0.1-0.1-0.3,0-0.4,0.1c-0.1,0.1,0,0.3,0.1,0.4c3.2,2.1,6.2,4.6,9,7.6
					c0.1,0.1,0.1,0.1,0.2,0.1c0.1,0,0.1,0,0.2-0.1c0.1-0.1,0.1-0.3,0-0.4C189.9,125.8,186.8,123.2,183.6,121.1z"/>
				<path class="st2" d="M170.6,115.5c-0.1,0-0.3,0.1-0.3,0.2s0.1,0.3,0.2,0.3c3.3,0.8,6.6,2,9.8,3.8h0.1c0.1,0,0.2-0.1,0.2-0.1
					c0.1-0.1,0-0.3-0.1-0.4C177.2,117.5,173.9,116.2,170.6,115.5z"/>
				<path class="st2" d="M189.5,120.7c-0.1,0.1-0.1,0.3,0,0.4c2.6,2.1,5.2,4.6,7.6,7.3c0.1,0.1,0.1,0.1,0.2,0.1c0.1,0,0.1,0,0.2-0.1
					c0.1-0.1,0.1-0.3,0-0.4c-2.4-2.7-5-5.2-7.7-7.4C189.7,120.6,189.6,120.6,189.5,120.7z"/>
				<path class="st2" d="M176.2,112.9c-0.1,0.1,0,0.3,0.1,0.3c3.5,1.4,7,3.3,10.3,5.7c0,0,0.1,0,0.2,0c0.1,0,0.2,0,0.2-0.1
					c0.1-0.1,0.1-0.3-0.1-0.4c-3.3-2.4-6.9-4.3-10.4-5.7C176.5,112.7,176.3,112.8,176.2,112.9z"/>
				<path class="st2" d="M173.1,112.1c0.1,0,0.2-0.1,0.3-0.2c0-0.1,0-0.3-0.2-0.3c-3.5-1.1-7.1-1.7-10.5-1.8c-0.1,0-0.3,0.1-0.3,0.3
					c0,0.1,0.1,0.3,0.3,0.3C166.1,110.4,169.6,111,173.1,112.1L173.1,112.1z"/>
				<path class="st2" d="M191.3,117.3c0,0,0.1,0.1,0.2,0.1c0.1,0,0.2,0,0.2-0.1c0.1-0.1,0.1-0.3-0.1-0.4c-2.9-2.2-5.9-4.1-9-5.7
					c-0.1-0.1-0.3,0-0.4,0.1c-0.1,0.1,0,0.3,0.1,0.4C185.4,113.2,188.4,115.1,191.3,117.3z"/>
				<path class="st2" d="M168,106.5c3.7,0.7,7.5,1.9,11.2,3.6h0.1c0.1,0,0.2-0.1,0.2-0.2c0.1-0.1,0-0.3-0.1-0.4
					c-3.7-1.7-7.6-2.9-11.3-3.6c-0.1,0-0.3,0.1-0.3,0.2C167.8,106.4,167.9,106.5,168,106.5z"/>
				<path class="st2" d="M164.8,105.8c0-0.1-0.1-0.3-0.2-0.3c-3.7-0.4-7.3-0.3-10.6,0.3c-0.1,0-0.2,0.2-0.2,0.3
					c0,0.1,0.1,0.2,0.3,0.2l0,0c3.3-0.6,6.9-0.7,10.5-0.3C164.6,106,164.8,105.9,164.8,105.8z"/>
				<path class="st2" d="M163.4,97.7c3.4,0.3,6.9,0.9,10.4,1.8c0,0,0,0,0.1,0s0.2-0.1,0.3-0.2c0-0.1,0-0.3-0.2-0.3
					c-3.5-0.9-7.1-1.5-10.5-1.8c-0.1,0-0.3,0.1-0.3,0.2C163.2,97.5,163.3,97.6,163.4,97.7z"/>
				<path class="st2" d="M159.9,96.9c-4.1-0.1-8.1,0.2-11.9,1c-0.1,0-0.2,0.2-0.2,0.3c0,0.1,0.1,0.2,0.3,0.2c0,0,0,0,0.1,0
					c3.7-0.8,7.6-1.1,11.7-1c0.2,0,0.3-0.1,0.3-0.3C160.2,97,160,96.9,159.9,96.9z"/>
				<path class="st2" d="M144.6,98.8c-3.5,1-6.8,2.5-9.7,4.3c-0.1,0.1-0.2,0.2-0.1,0.4c0.1,0.1,0.1,0.1,0.2,0.1h0.1
					c2.9-1.8,6.1-3.2,9.6-4.3c0.1,0,0.2-0.2,0.2-0.3C144.9,98.8,144.7,98.8,144.6,98.8z"/>
				<path class="st2" d="M152.2,93.7L152.2,93.7c3.4-0.4,7-0.4,10.6-0.2c0.2,0,0.3-0.1,0.3-0.2S163,93,162.9,93
					c-3.6-0.2-7.2-0.1-10.6,0.2c-0.1,0-0.3,0.1-0.2,0.3C152,93.6,152.1,93.7,152.2,93.7z"/>
				<path class="st2" d="M137.3,97.5h0.1c3.5-1.5,7.3-2.6,11.3-3.3c0.1,0,0.2-0.2,0.2-0.3c0-0.1-0.2-0.2-0.3-0.2
					c-4,0.7-7.9,1.8-11.4,3.3c-0.1,0.1-0.2,0.2-0.1,0.3C137.1,97.4,137.2,97.5,137.3,97.5z"/>
				<path class="st2" d="M125.5,105.1c0.1,0,0.1,0,0.2-0.1c2.5-2.3,5.4-4.4,8.6-6.1c0.1-0.1,0.2-0.2,0.1-0.4
					c-0.1-0.1-0.2-0.2-0.4-0.1c-3.3,1.7-6.2,3.8-8.7,6.1c-0.1,0.1-0.1,0.3,0,0.4C125.3,105.1,125.4,105.1,125.5,105.1z"/>
				<path class="st2" d="M140.4,92C140.5,92,140.5,92,140.4,92c3.3-1,6.8-1.8,10.4-2.3c0.1,0,0.2-0.2,0.2-0.3c0-0.1-0.2-0.2-0.3-0.2
					c-3.6,0.5-7.1,1.3-10.4,2.3c-0.1,0-0.2,0.2-0.2,0.3C140.2,92,140.3,92,140.4,92z"/>
				<path class="st2" d="M126.6,98.6C126.7,98.6,126.7,98.6,126.6,98.6c3.2-2.1,6.8-4,10.6-5.4c0.1-0.1,0.2-0.2,0.2-0.3
					c-0.1-0.1-0.2-0.2-0.3-0.2c-3.8,1.5-7.4,3.3-10.6,5.5c-0.1,0.1-0.2,0.2-0.1,0.4C126.4,98.6,126.5,98.6,126.6,98.6z"/>
				<path class="st2" d="M116.2,108c-0.1,0.1-0.1,0.3,0.1,0.4c0,0,0.1,0,0.2,0s0.2,0,0.2-0.1c2-2.8,4.4-5.3,7.2-7.6
					c0.1-0.1,0.1-0.3,0-0.4s-0.3-0.1-0.4,0C120.7,102.6,118.2,105.2,116.2,108z"/>
				<path class="st2" d="M117,95.6c0.1,0,0.1,0,0.2-0.1c2.6-2.2,5.5-4.2,8.6-6.1c0.1-0.1,0.2-0.2,0.1-0.4c-0.1-0.1-0.2-0.2-0.4-0.1
					c-3.1,1.9-6.1,3.9-8.7,6.1c-0.1,0.1-0.1,0.3,0,0.4C116.9,95.6,117,95.6,117,95.6z"/>
				<path class="st2" d="M106.5,106.7c-0.1,0.1,0,0.3,0.1,0.4h0.1c0.1,0,0.2,0,0.2-0.1c2.1-3.2,4.6-6.2,7.6-9c0.1-0.1,0.1-0.3,0-0.4
					s-0.3-0.1-0.4,0C111.2,100.4,108.6,103.4,106.5,106.7z"/>
				<path class="st2" d="M101.1,120L101.1,120c0.2,0,0.3-0.1,0.3-0.2c0.8-3.3,2-6.6,3.8-9.8c0.1-0.1,0-0.3-0.1-0.4s-0.3,0-0.4,0.1
					c-1.8,3.2-3.1,6.6-3.8,9.9C100.8,119.8,100.9,120,101.1,120z"/>
				<path class="st2" d="M106.3,100.8c0.1,0,0.2,0,0.2-0.1c2.1-2.6,4.6-5.2,7.3-7.6c0.1-0.1,0.1-0.3,0-0.4s-0.3-0.1-0.4,0
					c-2.7,2.4-5.2,5-7.4,7.7c-0.1,0.1-0.1,0.3,0,0.4C106.2,100.8,106.2,100.8,106.3,100.8z"/>
				<path class="st2" d="M98.3,114C98.4,114,98.4,114,98.3,114c0.2,0,0.3,0,0.3-0.1c1.4-3.5,3.3-7,5.7-10.3c0.1-0.1,0.1-0.3-0.1-0.4
					c-0.1-0.1-0.3-0.1-0.4,0.1c-2.4,3.3-4.3,6.9-5.7,10.4C98.1,113.8,98.2,113.9,98.3,114z"/>
				<path class="st2" d="M97.3,116.8c-0.1,0-0.3,0-0.3,0.2c-1.1,3.5-1.7,7.1-1.8,10.5c0,0.1,0.1,0.3,0.3,0.3l0,0
					c0.1,0,0.3-0.1,0.3-0.3c0.1-3.4,0.7-6.9,1.8-10.3C97.5,117,97.5,116.9,97.3,116.8z"/>
				<path class="st2" d="M96.8,107.9c0.1,0,0.2-0.1,0.2-0.1c1.6-3,3.5-6,5.7-8.9c0.1-0.1,0.1-0.3-0.1-0.4c-0.1-0.1-0.3-0.1-0.4,0.1
					c-2.2,2.9-4.1,5.9-5.7,9c-0.1,0.1,0,0.3,0.1,0.4C96.7,107.9,96.7,107.9,96.8,107.9z"/>
				<path class="st2" d="M91.6,122.4L91.6,122.4c0.2,0,0.3-0.1,0.3-0.2c0.7-3.7,1.9-7.5,3.6-11.2c0.1-0.1,0-0.3-0.1-0.4
					s-0.3,0-0.4,0.1c-1.7,3.7-2.9,7.6-3.6,11.3C91.4,122.3,91.5,122.4,91.6,122.4z"/>
				<path class="st2" d="M91.4,136.5L91.4,136.5c0.2,0,0.3-0.2,0.3-0.3c-0.6-3.3-0.7-6.9-0.3-10.5c0-0.1-0.1-0.3-0.2-0.3
					s-0.3,0.1-0.3,0.2c-0.4,3.7-0.3,7.3,0.3,10.6C91.2,136.4,91.3,136.5,91.4,136.5z"/>
				<path class="st2" d="M82.8,127L82.8,127c0.2,0,0.3-0.1,0.3-0.2c0.3-3.4,0.9-6.9,1.8-10.4c0-0.1,0-0.3-0.2-0.3
					c-0.1,0-0.3,0-0.3,0.2c-0.9,3.5-1.5,7.1-1.8,10.5C82.5,126.9,82.6,127,82.8,127z"/>
				<path class="st2" d="M83.6,142.4L83.6,142.4c0.2,0,0.3-0.2,0.3-0.3c-0.7-3.2-1-6.7-1-10.2c0-0.5,0-1,0-1.6
					c0-0.1-0.1-0.3-0.3-0.3c-0.2,0-0.3,0.1-0.3,0.3c0,0.5,0,1.1,0,1.6c0,3.5,0.3,7,1,10.3C83.4,142.3,83.5,142.4,83.6,142.4z"/>
				<path class="st2" d="M84.4,145.3c-0.1,0-0.2,0.2-0.2,0.3c1,3.5,2.5,6.8,4.3,9.7c0.1,0.1,0.1,0.1,0.2,0.1h0.1
					c0.1-0.1,0.2-0.2,0.1-0.4c-1.8-2.9-3.2-6.1-4.3-9.6C84.7,145.4,84.5,145.3,84.4,145.3z"/>
				<path class="st2" d="M78.8,138.3C78.9,138.3,78.9,138.3,78.8,138.3c0.2,0,0.3-0.1,0.3-0.3c-0.4-3.4-0.4-6.9-0.2-10.6
					c0-0.1-0.1-0.3-0.2-0.3c-0.2,0-0.3,0.1-0.3,0.2c-0.2,3.6-0.1,7.2,0.2,10.6C78.6,138.2,78.7,138.3,78.8,138.3z"/>
				<path class="st2" d="M82.4,153c0,0.1,0.1,0.2,0.2,0.2h0.1c0.1-0.1,0.2-0.2,0.1-0.3c-1.5-3.5-2.6-7.3-3.3-11.3
					c0-0.1-0.2-0.2-0.3-0.2c-0.1,0-0.2,0.2-0.2,0.3C79.8,145.6,80.9,149.5,82.4,153z"/>
				<path class="st2" d="M84,155.9c-0.1,0.1-0.2,0.2-0.1,0.4c1.7,3.3,3.8,6.2,6.1,8.7c0.1,0.1,0.1,0.1,0.2,0.1s0.1,0,0.2-0.1
					s0.1-0.3,0-0.4c-2.3-2.5-4.4-5.4-6.1-8.6C84.3,155.9,84.2,155.8,84,155.9z"/>
				<path class="st2" d="M77.2,150L77.2,150c0.2-0.1,0.3-0.2,0.3-0.3c-1-3.2-1.8-6.7-2.3-10.3c0-0.1-0.2-0.2-0.3-0.2
					c-0.1,0-0.2,0.2-0.2,0.3c0.5,3.6,1.3,7.1,2.3,10.4C77,150,77.1,150,77.2,150z"/>
				<path class="st2" d="M83.8,163.9C83.9,163.9,83.9,163.9,83.8,163.9c0.2-0.1,0.3-0.2,0.2-0.4c-2.1-3.1-4-6.7-5.4-10.5
					c-0.1-0.1-0.2-0.2-0.3-0.2c-0.1,0.1-0.2,0.2-0.2,0.3c1.5,3.8,3.3,7.4,5.5,10.6C83.6,163.9,83.7,163.9,83.8,163.9z"/>
				<path class="st2" d="M86.1,166.4c-0.1-0.1-0.3-0.1-0.4,0s-0.1,0.3,0,0.4c2.3,2.9,4.9,5.3,7.7,7.3c0,0,0.1,0,0.2,0s0.2,0,0.2-0.1
					c0.1-0.1,0.1-0.3-0.1-0.4C91,171.6,88.4,169.2,86.1,166.4z"/>
				<path class="st2" d="M80.8,173.5c0.1,0,0.1,0,0.2-0.1s0.1-0.3,0-0.4c-2.2-2.6-4.2-5.5-6.1-8.6c-0.1-0.1-0.2-0.2-0.4-0.1
					c-0.1,0.1-0.2,0.2-0.1,0.4c1.9,3.1,3.9,6.1,6.1,8.7C80.6,173.4,80.7,173.5,80.8,173.5z"/>
				<path class="st2" d="M92,183.7L92,183.7c0.2,0,0.3,0,0.3-0.1c0.1-0.1,0-0.3-0.1-0.4c-3.2-2.1-6.2-4.6-9-7.6
					c-0.1-0.1-0.3-0.1-0.4,0s-0.1,0.3,0,0.4C85.8,179,88.8,181.6,92,183.7z"/>
				<path class="st2" d="M105.1,189.4L105.1,189.4c0.2,0,0.3-0.1,0.3-0.2c0-0.1-0.1-0.3-0.2-0.3c-3.3-0.8-6.6-2-9.8-3.8
					c-0.1-0.1-0.3,0-0.4,0.1s0,0.3,0.1,0.4C98.4,187.3,101.7,188.6,105.1,189.4z"/>
				<path class="st2" d="M85.9,184.2c0.1,0,0.2,0,0.2-0.1c0.1-0.1,0.1-0.3,0-0.4c-2.6-2.1-5.2-4.6-7.6-7.3c-0.1-0.1-0.3-0.1-0.4,0
					s-0.1,0.3,0,0.4c2.4,2.7,5,5.2,7.7,7.4C85.8,184.2,85.9,184.2,85.9,184.2z"/>
				<path class="st2" d="M88.9,185.9c-0.1-0.1-0.3-0.1-0.4,0.1c-0.1,0.1-0.1,0.3,0.1,0.4c3.3,2.4,6.9,4.3,10.4,5.7h0.1
					c0.1,0,0.2-0.1,0.2-0.2c0.1-0.1,0-0.3-0.1-0.3C95.7,190.1,92.2,188.2,88.9,185.9z"/>
				<path class="st2" d="M102.2,192.9c0,0.1,0,0.3,0.2,0.3c3.5,1.1,7.1,1.7,10.5,1.8l0,0c0.1,0,0.3-0.1,0.3-0.3
					c0-0.1-0.1-0.3-0.3-0.3c-3.4-0.1-6.9-0.7-10.3-1.8C102.4,192.7,102.3,192.8,102.2,192.9z"/>
				<path class="st2" d="M84.3,187.5c-0.1-0.1-0.3-0.1-0.4,0.1c-0.1,0.1-0.1,0.3,0.1,0.4c2.9,2.2,5.9,4.1,9,5.7h0.1
					c0.1,0,0.2-0.1,0.2-0.1c0.1-0.1,0-0.3-0.1-0.4C90.2,191.6,87.2,189.7,84.3,187.5z"/>
				<path class="st2" d="M107.6,198.3c-3.7-0.7-7.5-1.9-11.2-3.6c-0.1-0.1-0.3,0-0.4,0.1s0,0.3,0.1,0.4c3.7,1.7,7.6,2.9,11.3,3.6
					l0,0c0.1,0,0.2-0.1,0.3-0.2C107.8,198.5,107.7,198.3,107.6,198.3z"/>
				<path class="st2" d="M121.7,199.1c0.1,0,0.2-0.2,0.2-0.3s-0.2-0.2-0.3-0.2c-3.3,0.6-6.9,0.7-10.5,0.3c-0.1,0-0.3,0.1-0.3,0.2
					c0,0.1,0.1,0.3,0.2,0.3c1.5,0.2,3,0.2,4.4,0.2C117.6,199.6,119.7,199.4,121.7,199.1z"/>
				<path class="st2" d="M137.8,194.4c23.1,0,42-18.8,42-42s-18.8-42-42-42s-42,18.8-42,42S114.7,194.4,137.8,194.4z"/>
			</g>
		</g>
		<g>
			<circle class="st1" cx="137.8" cy="152.4" r="3.8"/>
			<circle class="st2" cx="137.8" cy="152.4" r="9"/>
			
				<ellipse transform="matrix(8.248055e-02 -0.9966 0.9966 8.248055e-02 -25.4466 277.1604)" class="st2" cx="137.8" cy="152.4" rx="36.1" ry="36.1"/>
			<circle class="st2" cx="137.8" cy="152.4" r="18"/>
			<circle class="st2" cx="137.8" cy="152.4" r="27.1"/>
			<circle class="st1" cx="150.5" cy="165.2" r="2.6"/>
			<circle class="st1" cx="132.6" cy="159.5" r="2.6"/>
			<circle class="st1" cx="157.1" cy="133.4" r="2.6"/>
			<circle class="st1" cx="101.7" cy="153.7" r="2.6"/>
		</g>
	</g>
	<g>
		<path class="st2" d="M239.4,199.6h-14.5c-9.5,0-17.2,7.7-17.1,17.2v2.5"/>
		<g>
			<polygon class="st1" points="205.6,217.5 206,217.1 207.8,219.1 209.6,217.1 210,217.4 207.8,219.9 			"/>
		</g>
	</g>
</g>
</svg>
